<svg xmlns="http://www.w3.org/2000/svg" viewBox="0 0 1600 900"><title>baggrund</title><ellipse cx="86.38" cy="767.4" rx="4.58" ry="13.88" style="fill:#c4c2c0;stroke:#000;stroke-miterlimit:10"/><rect width="1600" height="900" style="fill:#7e8e81;stroke:#000;stroke-miterlimit:10"/><path d="M860.14,158l.79,200.74,26.13,57.77-38-33.92-15.84,33.92s1.58-22.52,0-30.41-18.21,0-18.21,0-5.54,21.6-33.26,24-11.09-7.18-11.09-7.18l22.17-16.78,3.17-233Z" style="fill:#916940;stroke:#000;stroke-miterlimit:10"/><path d="M933.08,117.67c0-10.49-3.69-19.9-9.55-26.38-2.85-13.69-12.16-24.17-23.68-26.18-5-5.35-11.53-8.59-18.67-8.59a23.86,23.86,0,0,0-10.83,2.63c-3.83-14-14.51-24-27.1-24a23.64,23.64,0,0,0-9,1.79,23.5,23.5,0,0,0-19.33.6,25.46,25.46,0,0,0-18.27-8.15c-8.78,0-16.64,4.9-21.89,12.6a23.42,23.42,0,0,0-3.4-.26c-15.8,0-28.61,15.84-28.61,35.38a42.5,42.5,0,0,0,2.39,14.16,41,41,0,0,0-5.72,21.22c0,15,7.53,27.78,18.17,32.94,1.66,17.59,13.74,31.24,28.41,31.24.77,0,1.53,0,2.28-.12,4.36,12.65,14.51,21.52,26.33,21.52A23.79,23.79,0,0,0,825,195.67a25.46,25.46,0,0,0,18.27,8.15c7.59,0,14.49-3.66,19.61-9.63a24.19,24.19,0,0,0,13,3.87c11.8,0,21.94-8.84,26.31-21.46,15-1.08,26.92-16.48,26.92-35.32a43.89,43.89,0,0,0-.29-5A41.58,41.58,0,0,0,933.08,117.67Z" style="fill:#70bc3f;stroke:#000;stroke-miterlimit:10"/><line x1="806.65" y1="230.15" x2="805.32" y2="348.65" style="fill:none;stroke:#000;stroke-miterlimit:10"/><line x1="822.62" y1="267.18" x2="821.29" y2="326.43" style="fill:none;stroke:#000;stroke-miterlimit:10"/><line x1="836.26" y1="234.27" x2="836.26" y2="313.27" style="fill:none;stroke:#000;stroke-miterlimit:10"/><line x1="851.23" y1="217.81" x2="851.9" y2="352.76" style="fill:none;stroke:#000;stroke-miterlimit:10"/><path d="M1296.3,177.79l.89,194.58,29.46,56L1283.8,395.5l-17.85,32.88s1.79-21.83,0-29.48-20.53,0-20.53,0-6.25,20.93-37.49,23.23-12.5-7-12.5-7l25-16.26L1224,173Z" style="fill:#916940;stroke:#000;stroke-miterlimit:10"/><path d="M1378.53,138.74a35.19,35.19,0,0,0-10.77-25.57c-3.21-13.27-13.71-23.43-26.69-25.37A31,31,0,0,0,1320,79.47,30.5,30.5,0,0,0,1307.8,82c-4.32-13.54-16.36-23.29-30.55-23.29a30.47,30.47,0,0,0-10.13,1.73,30.45,30.45,0,0,0-21.79.59,31,31,0,0,0-20.6-7.9,31.45,31.45,0,0,0-24.67,12.21,30.63,30.63,0,0,0-3.83-.25c-17.82,0-32.26,15.36-32.26,34.3a36,36,0,0,0,2.69,13.73,35.58,35.58,0,0,0-6.45,20.57c0,14.52,8.49,26.93,20.48,31.93,1.87,17.05,15.49,30.29,32,30.29.87,0,1.72,0,2.57-.12,4.92,12.26,16.36,20.86,29.68,20.86a30.48,30.48,0,0,0,11.66-2.32,30.82,30.82,0,0,0,42.7-1.43,30.57,30.57,0,0,0,14.66,3.75c13.31,0,24.73-8.57,29.66-20.8,16.93-1,30.35-16,30.35-34.23a36.65,36.65,0,0,0-.33-4.84A35.74,35.74,0,0,0,1378.53,138.74Z" style="fill:#70bc3f;stroke:#000;stroke-miterlimit:10"/><line x1="1235.99" y1="247.78" x2="1234.49" y2="362.64" style="fill:none;stroke:#000;stroke-miterlimit:10"/><line x1="1253.99" y1="283.67" x2="1252.49" y2="341.1" style="fill:none;stroke:#000;stroke-miterlimit:10"/><line x1="1269.37" y1="251.76" x2="1269.37" y2="328.34" style="fill:none;stroke:#000;stroke-miterlimit:10"/><line x1="1286.25" y1="235.81" x2="1287" y2="366.63" style="fill:none;stroke:#000;stroke-miterlimit:10"/><path d="M1529.7,207.12l1,213.35,34.34,61.4-50-36-20.81,36s2.08-23.94,0-32.32-23.94,0-23.94,0-7.29,23-43.71,25.47-14.57-7.63-14.57-7.63l29.14-17.83,4.16-247.63Z" style="fill:#916940;stroke:#000;stroke-miterlimit:10"/><path d="M1625.56,164.31a37.51,37.51,0,0,0-12.56-28,37.64,37.64,0,0,0-31.12-27.82,37.59,37.59,0,0,0-38.78-6.33,37.6,37.6,0,0,0-47.42-23.63,37.6,37.6,0,0,0-25.4.64,37.59,37.59,0,0,0-52.78,4.73,37.55,37.55,0,0,0-42.08,37.33,37.47,37.47,0,0,0,3.14,15.05,37.61,37.61,0,0,0,16.36,57.57A37.61,37.61,0,0,0,1432.28,227c1,0,2-.05,3-.13a37.61,37.61,0,0,0,48.2,20.32,37.58,37.58,0,0,0,49.78-1.56,37.61,37.61,0,0,0,51.66-18.7,37.57,37.57,0,0,0,35-42.84A37.42,37.42,0,0,0,1625.56,164.31Z" style="fill:#56962d;stroke:#000;stroke-miterlimit:10"/><line x1="1459.4" y1="283.86" x2="1457.65" y2="409.8" style="fill:none;stroke:#000;stroke-miterlimit:10"/><line x1="1480.38" y1="323.22" x2="1478.64" y2="386.19" style="fill:none;stroke:#000;stroke-miterlimit:10"/><line x1="1498.31" y1="288.23" x2="1498.31" y2="372.19" style="fill:none;stroke:#000;stroke-miterlimit:10"/><line x1="1517.99" y1="270.74" x2="1518.87" y2="414.17" style="fill:none;stroke:#000;stroke-miterlimit:10"/><path d="M0,475.47S1170.23,696,1600,631.84V830.21S75.17,745.53,0,627.9Z" style="fill:#bfbfbf;stroke:#000;stroke-miterlimit:10"/><path d="M1423.29,248.5l1,213.35,34.34,61.4-50-36-20.81,36s2.08-23.94,0-32.32-23.94,0-23.94,0-7.29,23-43.71,25.47-14.57-7.63-14.57-7.63l29.14-17.83L1339,243.3Z" style="fill:#916940;stroke:#000;stroke-miterlimit:10"/><path d="M1519.15,205.69a37.51,37.51,0,0,0-12.56-28,37.64,37.64,0,0,0-31.12-27.82,37.59,37.59,0,0,0-38.78-6.33,37.6,37.6,0,0,0-47.42-23.63,37.6,37.6,0,0,0-25.4.64,37.59,37.59,0,0,0-52.78,4.73A37.55,37.55,0,0,0,1269,162.57a37.47,37.47,0,0,0,3.14,15.05,37.61,37.61,0,0,0,16.36,57.57,37.61,37.61,0,0,0,37.34,33.21c1,0,2-.05,3-.13a37.61,37.61,0,0,0,48.2,20.32,37.58,37.58,0,0,0,49.78-1.56,37.61,37.61,0,0,0,51.66-18.7,37.57,37.57,0,0,0,35-42.84A37.42,37.42,0,0,0,1519.15,205.69Z" style="fill:#49772b;stroke:#000;stroke-miterlimit:10"/><line x1="1352.98" y1="325.24" x2="1351.23" y2="451.18" style="fill:none;stroke:#000;stroke-miterlimit:10"/><line x1="1373.97" y1="364.59" x2="1372.22" y2="427.56" style="fill:none;stroke:#000;stroke-miterlimit:10"/><line x1="1391.9" y1="329.61" x2="1391.9" y2="413.57" style="fill:none;stroke:#000;stroke-miterlimit:10"/><line x1="1411.57" y1="312.12" x2="1412.45" y2="455.55" style="fill:none;stroke:#000;stroke-miterlimit:10"/><path d="M1570.65,266.87l1,213.35,34.34,61.4-50-36-20.81,36s2.08-23.94,0-32.32-23.94,0-23.94,0-7.29,23-43.71,25.47-14.57-7.63-14.57-7.63l29.14-17.83,4.16-247.63Z" style="fill:#916940;stroke:#000;stroke-miterlimit:10"/><path d="M1666.51,224.06A37.51,37.51,0,0,0,1654,196a37.64,37.64,0,0,0-31.12-27.82,37.59,37.59,0,0,0-38.78-6.33,37.6,37.6,0,0,0-47.42-23.63,37.6,37.6,0,0,0-25.4.64,37.59,37.59,0,0,0-52.78,4.73,37.55,37.55,0,0,0-42.08,37.33,37.47,37.47,0,0,0,3.14,15.05,37.61,37.61,0,0,0,16.36,57.57,37.61,37.61,0,0,0,37.34,33.21c1,0,2-.05,3-.13a37.61,37.61,0,0,0,48.2,20.32,37.58,37.58,0,0,0,49.78-1.56,37.61,37.61,0,0,0,51.66-18.7,37.57,37.57,0,0,0,35-42.84A37.42,37.42,0,0,0,1666.51,224.06Z" style="fill:#70bc3f;stroke:#000;stroke-miterlimit:10"/><line x1="1500.34" y1="343.61" x2="1498.59" y2="469.55" style="fill:none;stroke:#000;stroke-miterlimit:10"/><line x1="1521.33" y1="382.96" x2="1519.58" y2="445.93" style="fill:none;stroke:#000;stroke-miterlimit:10"/><line x1="1539.26" y1="347.98" x2="1539.26" y2="431.94" style="fill:none;stroke:#000;stroke-miterlimit:10"/><line x1="1558.94" y1="330.49" x2="1559.81" y2="473.92" style="fill:none;stroke:#000;stroke-miterlimit:10"/><path d="M1076.51,188.92l1.08,224.78,35.63,64.69-51.82-38-21.59,38s2.16-25.22,0-34.05-24.83,0-24.83,0-7.56,24.18-45.35,26.83-15.12-8-15.12-8l30.23-18.79,4.32-260.91Z" style="fill:#916940;stroke:#000;stroke-miterlimit:10"/><path d="M1176,143.82a39.79,39.79,0,0,0-13-29.54A39.27,39.27,0,0,0,1130.65,85a38.51,38.51,0,0,0-40.23-6.67,39.08,39.08,0,0,0-36.95-26.9,38.41,38.41,0,0,0-12.25,2,38.44,38.44,0,0,0-26.35.68,38.58,38.58,0,0,0-54.75,5,38.75,38.75,0,0,0-4.64-.29c-21.55,0-39,17.74-39,39.62a40,40,0,0,0,3.26,15.86,39.94,39.94,0,0,0,17,60.65c2.26,19.7,18.74,35,38.74,35,1,0,2.08-.05,3.11-.14a39,39,0,0,0,35.9,24.09,38.37,38.37,0,0,0,14.1-2.68,38.54,38.54,0,0,0,51.64-1.65,38.35,38.35,0,0,0,17.72,4.33,39,39,0,0,0,35.87-24c20.47-1.21,36.71-18.45,36.71-39.55a40.47,40.47,0,0,0-.39-5.59A39.88,39.88,0,0,0,1176,143.82Z" style="fill:#3a7712;stroke:#000;stroke-miterlimit:10"/><line x1="1003.58" y1="269.77" x2="1001.76" y2="402.46" style="fill:none;stroke:#000;stroke-miterlimit:10"/><line x1="1025.35" y1="311.23" x2="1023.54" y2="377.58" style="fill:none;stroke:#000;stroke-miterlimit:10"/><line x1="1043.95" y1="274.38" x2="1043.95" y2="362.83" style="fill:none;stroke:#000;stroke-miterlimit:10"/><line x1="1064.37" y1="255.95" x2="1065.27" y2="407.06" style="fill:none;stroke:#000;stroke-miterlimit:10"/><path d="M962.92,277.16l1,179.22L996.56,508l-47.49-30.28L929.28,508s2-20.11,0-27.15-22.76,0-22.76,0S899.6,500.09,865,502.2s-13.85-6.41-13.85-6.41l27.7-15,4-208Z" style="fill:#916940;stroke:#000;stroke-miterlimit:10"/><path d="M1054.05,241.2c0-9.36-4.61-17.77-11.94-23.56-3.56-12.22-15.2-21.58-29.58-23.37a38.45,38.45,0,0,0-23.33-7.67A39.75,39.75,0,0,0,975.67,189c-4.78-12.47-18.13-21.45-33.86-21.45a40,40,0,0,0-11.22,1.6,40.19,40.19,0,0,0-24.15.54,38.54,38.54,0,0,0-22.83-7.28,37.71,37.71,0,0,0-27.35,11.25,40.75,40.75,0,0,0-4.25-.23c-19.74,0-35.75,14.14-35.75,31.59a28.38,28.38,0,0,0,3,12.64,29.13,29.13,0,0,0-7.14,18.95c0,13.38,9.41,24.8,22.7,29.41,2.07,15.7,17.17,27.89,35.5,27.89,1,0,1.91,0,2.85-.11,5.45,11.29,18.13,19.21,32.9,19.21A39.81,39.81,0,0,0,919,310.83a39.32,39.32,0,0,0,47.32-1.31A39.43,39.43,0,0,0,982.55,313c14.75,0,27.41-7.89,32.87-19.16,18.76-1,33.64-14.71,33.64-31.53a28.16,28.16,0,0,0-.36-4.46A28.79,28.79,0,0,0,1054.05,241.2Z" style="fill:#70bc3f;stroke:#000;stroke-miterlimit:10"/><line x1="896.08" y1="341.62" x2="894.42" y2="447.41" style="fill:none;stroke:#000;stroke-miterlimit:10"/><line x1="916.03" y1="374.68" x2="914.37" y2="427.58" style="fill:none;stroke:#000;stroke-miterlimit:10"/><line x1="933.08" y1="345.29" x2="933.08" y2="415.82" style="fill:none;stroke:#000;stroke-miterlimit:10"/><line x1="951.79" y1="330.6" x2="952.62" y2="451.09" style="fill:none;stroke:#000;stroke-miterlimit:10"/><path d="M714.42,240l1,213.35,34.34,61.4-50-36L679,514.7s2.08-23.94,0-32.32-23.94,0-23.94,0-7.29,23-43.71,25.47-14.57-7.63-14.57-7.63L626,482.38l4.16-247.63Z" style="fill:#916940;stroke:#000;stroke-miterlimit:10"/><path d="M810.28,197.14a37.51,37.51,0,0,0-12.56-28,37.64,37.64,0,0,0-31.12-27.82A37.59,37.59,0,0,0,727.83,135a37.6,37.6,0,0,0-47.42-23.63A37.6,37.6,0,0,0,655,112a37.59,37.59,0,0,0-52.78,4.73A37.55,37.55,0,0,0,560.16,154a37.47,37.47,0,0,0,3.14,15.05,37.61,37.61,0,0,0,16.36,57.57A37.61,37.61,0,0,0,617,259.84c1,0,2-.05,3-.13A37.61,37.61,0,0,0,668.21,280,37.58,37.58,0,0,0,718,278.47a37.61,37.61,0,0,0,51.66-18.7,37.57,37.57,0,0,0,35-42.84A37.42,37.42,0,0,0,810.28,197.14Z" style="fill:#58a328;stroke:#000;stroke-miterlimit:10"/><line x1="644.12" y1="316.69" x2="642.37" y2="442.63" style="fill:none;stroke:#000;stroke-miterlimit:10"/><line x1="665.11" y1="356.04" x2="663.36" y2="419.01" style="fill:none;stroke:#000;stroke-miterlimit:10"/><line x1="683.03" y1="321.06" x2="683.03" y2="405.02" style="fill:none;stroke:#000;stroke-miterlimit:10"/><line x1="702.71" y1="303.57" x2="703.59" y2="447" style="fill:none;stroke:#000;stroke-miterlimit:10"/><path d="M1168.81,260.48l1.1,216.43,36.18,62.29-52.62-36.57-21.93,36.57s2.19-24.28,0-32.79-25.21,0-25.21,0-7.67,23.29-46,25.83-15.35-7.74-15.35-7.74l30.7-18.09L1080,255.2Z" style="fill:#916940;stroke:#000;stroke-miterlimit:10"/><path d="M1269.78,217.05a37.45,37.45,0,0,0-13.23-28.45c-3.95-14.76-16.84-26.06-32.78-28.22a40.34,40.34,0,0,0-25.85-9.26,40.8,40.8,0,0,0-15,2.84c-5.3-15.06-20.09-25.9-37.52-25.9A40.94,40.94,0,0,0,1133,130a41,41,0,0,0-26.76.65,40.67,40.67,0,0,0-55.59,4.79,41.47,41.47,0,0,0-4.71-.28c-21.88,0-39.61,17.08-39.61,38.15a36.82,36.82,0,0,0,3.31,15.27,37.07,37.07,0,0,0-7.92,22.88c0,16.15,10.43,30,25.15,35.52,2.3,19,19,33.69,39.33,33.69,1.07,0,2.12-.05,3.16-.13a39.68,39.68,0,0,0,36.45,23.2,40.83,40.83,0,0,0,14.32-2.58,40.73,40.73,0,0,0,52.44-1.59,40.66,40.66,0,0,0,18,4.17A39.68,39.68,0,0,0,1227,280.59c20.79-1.17,37.27-17.77,37.27-38.08a37,37,0,0,0-.4-5.38A36.93,36.93,0,0,0,1269.78,217.05Z" style="fill:#70bc3f;stroke:#000;stroke-miterlimit:10"/><line x1="1094.75" y1="338.33" x2="1092.91" y2="466.08" style="fill:none;stroke:#000;stroke-miterlimit:10"/><line x1="1116.86" y1="378.25" x2="1115.02" y2="442.13" style="fill:none;stroke:#000;stroke-miterlimit:10"/><line x1="1135.74" y1="342.76" x2="1135.74" y2="427.94" style="fill:none;stroke:#000;stroke-miterlimit:10"/><line x1="1156.47" y1="325.02" x2="1157.39" y2="470.52" style="fill:none;stroke:#000;stroke-miterlimit:10"/><path d="M418.47,430.86c-15-7.08-50.45,0-50.45,0-15,22.13,0,36.29,0,36.29,24.78,8.85,50.45,0,50.45,0C436.17,448.56,418.47,430.86,418.47,430.86Z" style="fill:#706e6c;stroke:#000;stroke-miterlimit:10"/><path d="M317.45,463.9s-15-14.16,0-36.29c0,0,35.4-7.08,50.45,0,0,0,17.7,17.7,0,36.29C367.9,463.9,342.23,472.75,317.45,463.9Z" style="fill:#706e6c;stroke:#000;stroke-miterlimit:10"/><path d="M265.24,455.9s-15-14.16,0-36.29c0,0,35.4-7.08,50.45,0,0,0,17.7,17.7,0,36.29C315.68,455.9,290,464.75,265.24,455.9Z" style="fill:#706e6c;stroke:#000;stroke-miterlimit:10"/><path d="M213.91,449.69s-15-14.16,0-36.29c0,0,35.4-7.08,50.45,0,0,0,17.7,17.7,0,36.29C264.35,449.69,238.69,458.54,213.91,449.69Z" style="fill:#706e6c;stroke:#000;stroke-miterlimit:10"/><path d="M169.66,442.22s-15-14.16,0-36.29c0,0,35.4-7.08,50.45,0,0,0,17.7,17.7,0,36.29C220.1,442.22,194.44,451.07,169.66,442.22Z" style="fill:#706e6c;stroke:#000;stroke-miterlimit:10"/><path d="M114.79,434.22s-15-14.16,0-36.29c0,0,35.4-7.08,50.45,0,0,0,17.7,17.7,0,36.29C165.23,434.22,139.57,443.07,114.79,434.22Z" style="fill:#706e6c;stroke:#000;stroke-miterlimit:10"/><path d="M72.31,424.33s-15-14.16,0-36.29c0,0,35.4-7.08,50.45,0,0,0,17.7,17.7,0,36.29C122.75,424.33,97.09,433.18,72.31,424.33Z" style="fill:#706e6c;stroke:#000;stroke-miterlimit:10"/><path d="M21,415.52s-15-14.16,0-36.29c0,0,35.4-7.08,50.45,0,0,0,17.7,17.7,0,36.29C71.42,415.52,45.75,424.37,21,415.52Z" style="fill:#706e6c;stroke:#000;stroke-miterlimit:10"/><path d="M25.38,387.89s-15-14.16,0-36.29c0,0,35.4-7.08,50.45,0,0,0,17.7,17.7,0,36.29C75.82,387.89,50.16,396.74,25.38,387.89Z" style="fill:#706e6c;stroke:#000;stroke-miterlimit:10"/><path d="M82.29,390s-15-14.16,0-36.29c0,0,35.4-7.08,50.45,0,0,0,17.7,17.7,0,36.29C132.73,390,107.07,398.82,82.29,390Z" style="fill:#706e6c;stroke:#000;stroke-miterlimit:10"/><path d="M128.31,397.41s-15-14.16,0-36.29c0,0,35.4-7.08,50.45,0,0,0,17.7,17.7,0,36.29C178.75,397.41,153.09,406.26,128.31,397.41Z" style="fill:#706e6c;stroke:#000;stroke-miterlimit:10"/><path d="M169.66,403.1s-15-14.16,0-36.29c0,0,35.4-7.08,50.45,0,0,0,17.7,17.7,0,36.29C220.1,403.1,194.44,411.95,169.66,403.1Z" style="fill:#706e6c;stroke:#000;stroke-miterlimit:10"/><path d="M213.91,406.83s-15-14.16,0-36.29c0,0,35.4-7.08,50.45,0,0,0,17.7,17.7,0,36.29C264.35,406.83,238.69,415.68,213.91,406.83Z" style="fill:#706e6c;stroke:#000;stroke-miterlimit:10"/><path d="M265.24,412.27s-15-14.16,0-36.29c0,0,35.4-7.08,50.45,0,0,0,17.7,17.7,0,36.29C315.68,412.27,290,421.12,265.24,412.27Z" style="fill:#706e6c;stroke:#000;stroke-miterlimit:10"/><path d="M322.38,419.39s-15-14.16,0-36.29c0,0,35.4-7.08,50.45,0,0,0,17.7,17.7,0,36.29C372.82,419.39,347.16,428.24,322.38,419.39Z" style="fill:#706e6c;stroke:#000;stroke-miterlimit:10"/><path d="M370.55,428s-15-14.16,0-36.29c0,0,35.4-7.08,50.45,0,0,0,17.7,17.7,0,36.29C421,428,395.33,436.86,370.55,428Z" style="fill:#706e6c;stroke:#000;stroke-miterlimit:10"/><path d="M370.55,384.64s-15-14.16,0-36.29c0,0,35.4-7.08,50.45,0,0,0,17.7,17.7,0,36.29C421,384.64,395.33,393.49,370.55,384.64Z" style="fill:#706e6c;stroke:#000;stroke-miterlimit:10"/><path d="M312.14,380.79s-15-14.16,0-36.29c0,0,35.4-7.08,50.45,0,0,0,17.7,17.7,0,36.29C362.59,380.79,336.92,389.64,312.14,380.79Z" style="fill:#706e6c;stroke:#000;stroke-miterlimit:10"/><path d="M257.38,380.79s-15-14.16,0-36.29c0,0,35.4-7.08,50.45,0,0,0,17.7,17.7,0,36.29C307.83,380.79,282.16,389.64,257.38,380.79Z" style="fill:#706e6c;stroke:#000;stroke-miterlimit:10"/><path d="M202.15,372.45s-15-14.16,0-36.29c0,0,35.4-7.08,50.45,0,0,0,17.7,17.7,0,36.29C252.6,372.45,226.94,381.3,202.15,372.45Z" style="fill:#706e6c;stroke:#000;stroke-miterlimit:10"/><path d="M145.31,368.42s-15-14.16,0-36.29c0,0,35.4-7.08,50.45,0,0,0,17.7,17.7,0,36.29C195.75,368.42,170.09,377.27,145.31,368.42Z" style="fill:#706e6c;stroke:#000;stroke-miterlimit:10"/><path d="M90.38,360.51s-15-14.16,0-36.29c0,0,35.4-7.08,50.45,0,0,0,17.7,17.7,0,36.29C140.82,360.51,115.16,369.36,90.38,360.51Z" style="fill:#706e6c;stroke:#000;stroke-miterlimit:10"/><path d="M30.2,353.86s-15-14.16,0-36.29c0,0,35.4-7.08,50.45,0,0,0,17.7,17.7,0,36.29C80.64,353.86,55,362.71,30.2,353.86Z" style="fill:#706e6c;stroke:#000;stroke-miterlimit:10"/><path d="M419.25,429.77s5.61-9.27,11.54-10.62c0,0,5.93,19.6,0,32.25l-11.54,14.65" style="fill:#706e6c;stroke:#000;stroke-miterlimit:10"/><path d="M419.25,394.2s5.61-9.27,11.54-10.62c0,0,5.93,19.6,0,32.25l-11.54,14.65" style="fill:#706e6c;stroke:#000;stroke-miterlimit:10"/><path d="M419.25,357.62s5.61-9.27,11.54-10.62c0,0,5.93,19.6,0,32.25l-11.54,14.65" style="fill:#706e6c;stroke:#000;stroke-miterlimit:10"/><path d="M713,516.12s-18.61-27.39-30-26.35c0,0,27.92,13.44,30,6.2l-8.27-11.37,20.68,8.27V477.35l15.51,19.38s2.07-26.62,0-29.72l-2.07-3.1s16.54,22.39,9.31,44.8l12.41-33.42v40.83L784.37,496l-8.27,27.92L713,516.12" style="fill:#55c64b;stroke:#000;stroke-miterlimit:10"/><path d="M547.15,423.35S528.53,396,517.16,397c0,0,27.92,13.44,30,6.2l-8.27-11.37,20.68,8.27V384.59L575.07,404s2.07-26.62,0-29.72l-2.07-3.1s16.54,22.39,9.31,44.8l12.41-33.42v40.83l23.78-20.15-8.27,27.92-63.08-7.77" style="fill:#55c64b;stroke:#000;stroke-miterlimit:10"/><path d="M932.26,519.73s-18.61-27.39-30-26.35c0,0,27.92,13.44,30,6.2L924,488.2l20.68,8.27V481l15.51,19.38s2.07-26.62,0-29.72l-2.07-3.1s16.54,22.39,9.31,44.8l12.41-33.42v40.83l23.78-20.15-8.27,27.92-63.08-7.77" style="fill:#55c64b;stroke:#000;stroke-miterlimit:10"/><path d="M1249.1,486.13s-18.61-27.39-30-26.35c0,0,27.92,13.44,30,6.2l-8.27-11.37,20.68,8.27V447.37L1277,466.75s2.07-26.62,0-29.72l-2.07-3.1s16.54,22.39,9.31,44.8l12.41-33.42v40.83L1320.45,466l-8.27,27.92-63.08-7.77" style="fill:#55c64b;stroke:#000;stroke-miterlimit:10"/><path d="M1408.91,546.1s-18.61-27.39-30-26.35c0,0,27.92,13.44,30,6.2l-8.27-11.37,20.68,8.27V507.34l15.51,19.38s2.07-26.62,0-29.72l-2.07-3.1s16.54,22.39,9.31,44.8l12.41-33.42V546.1L1480.26,526,1472,553.87l-63.08-7.77" style="fill:#55c64b;stroke:#000;stroke-miterlimit:10"/></svg>
