<svg xmlns="http://www.w3.org/2000/svg" viewBox="0 0 146.4 346.17"><defs><style>.cls-1,.cls-6{fill:#afaa8c;}.cls-2,.cls-7{fill:#020202;}.cls-3{fill:none;}.cls-10,.cls-11,.cls-12,.cls-13,.cls-14,.cls-3,.cls-4,.cls-5,.cls-6,.cls-7,.cls-8,.cls-9{stroke:#000;stroke-miterlimit:10;}.cls-4{fill:#af876b;}.cls-5{fill:#366b89;}.cls-8{fill:#1d546d;}.cls-9{fill:#998271;}.cls-10{fill:#050505;}.cls-11{fill:#c9b7a9;}.cls-12{fill:#cecdcc;}.cls-13{fill:#894c1f;}.cls-14{fill:#f9f8f7;}</style></defs><title>Mand går</title><g id="Layer_2" data-name="Layer 2"><g id="Layer_1-2" data-name="Layer 1"><path class="cls-1" d="M119.31,239.64c10.16,18-13.55,80.2-13.55,80.2-14.67,4-48.54,2-55.31-8s6.77-72.18,6.77-72.18C77.54,242.65,119.31,239.64,119.31,239.64Z"/><path class="cls-2" d="M105.76,319.84s18.06,4,11.29,19c0,0-101.6-8-86.92-9.52,0,0-14.68-5.52,20.32-17.55C57.22,321.85,91.09,323.85,105.76,319.84Z"/><path class="cls-3" d="M105.76,319.84s23.71-62.16,13.55-80.2c0,0-41.77,3-62.09,0,0,0-13.55,62.16-6.77,72.18S91.09,323.85,105.76,319.84Z"/><path class="cls-3" d="M105.76,319.84s18.06,4,11.29,19c0,0-101.6-8-86.92-9.52,0,0-14.68-5.52,20.32-17.55"/><path class="cls-4" d="M32.79,202.55l-18.66,1.79s-3.53,6.27,3,6.27-13.11,0-12.61,8.51l-4,111.52H13.13s-4-102.56.5-100.77c0,0,1-6.72,6.05-6.72,0,0-4.54-8.06,4.54-11.64l11.6-.9,9.58-12.09Z"/><line class="cls-3" x1="17.16" y1="210.61" x2="24.22" y2="211.5"/><path class="cls-5" d="M119,119.81s53.06,110.28,10.16,120.3c0,0-16.93,16-67.73,8,0,0-42.9-13,0-128.32Z"/><path class="cls-6" d="M120.94,246.39s-41.77,3-62.09,0c0,0-13.55,62.16-6.77,72.18s40.64,12,55.32,8C107.39,326.6,131.1,264.44,120.94,246.39Z"/><path class="cls-7" d="M107.39,326.6s18.06,4,11.29,19c0,0-101.6-8-86.92-9.52,0,0-14.68-5.51,20.32-17.54"/><path class="cls-8" d="M97.43,153,83.88,201.12s-14.68,19-38.38,23.06L28.57,206.58l27.09-26.52L63,146S89.53,133.95,97.43,153Z"/><path class="cls-9" d="M45.5,224.18s-9,1-16.93,20.05c0,0-8.21,2.47-6.7-6.48,0,0-9.58,2.55-2.52-5.44,0,0-14.77-1.54-2.6-8.12,0,0-20.32-8.89,11.81-17.59"/><path class="cls-10" d="M49.82,102.48s13.59-4.92,19.42,0c0,0-1.4,3.19-2.79,6.16-.75,1.61-3.34-.44-3.34-.44Z"/><path class="cls-11" d="M118.12,29c-.49-3.23-3.62-5.61-7.29-5.53-16,.35-56.42,1.57-55.61,4.8s-5-1.72-6.69,27.22c-.39,6.7-.56,15.22-.37,26.08L37.06,95.89s1.51,12.54,11.1,4.93c0,0-2.52,18.36,11.1,17.47,0,0,43.88,6.27,57.49-4C116.74,114.26,130.74,113,118.12,29Z"/><path class="cls-3" d="M76.09,55.38s17.15-18.36,14.63,0c0,0,.5,18.81-2,26.42,0,0-3.75,8.16-9.91-4.41"/><path class="cls-3" d="M81.76,60.29s4.26-2.52,3.41,3.28l.11,9.34s-.4,3.79-3.52,0"/><path class="cls-3" d="M48.64,55s4.26-2,8.81,2c0,0,4.55,14.9-1.14,14.64,0,0-7.09,2-8.23-1.26"/><line class="cls-3" x1="59.17" y1="66.33" x2="48.09" y2="64.22"/><polygon class="cls-12" points="93.42 23.67 105.74 47.22 105.74 35.44 114.26 40.07 109.52 23.67 93.42 23.67"/><path class="cls-13" d="M116,23.46s-62.37-.59-61.9,4.88-17-4.21-8.05-6.31h8.05S39.91,18.67,56,14.88c0,0-14.21-2.1-1.42-6.31,0,0,39.3-12.62,39.78-6.31,0,0,7.58,5.89-3.79,5.89,0,0,18.47,2.83,14.68,7.09C105.26,15.25,131.17,19.67,116,23.46Z"/><path class="cls-3" d="M91,8.66a135.36,135.36,0,0,0-33.62,5.89"/><path class="cls-3" d="M104.92,15.25s-12.79-6.31-32.67,0"/><path class="cls-12" d="M55.21,28.27S40.69,44.46,40.69,48.94s-3.15-2.43,0-7.46l-4.41,5.41s3.78-6.53-2.31-3c0,0,1.14-7.13,17.31-14Z"/><path class="cls-14" d="M50.67,65.51l7.74,1.2s.54,4.74-.48,4.74H48.09V64.79Z"/><rect x="48.63" y="66.33" width="5.29" height="5.29" rx="2.64" ry="2.64"/></g></g></svg>
