<svg xmlns="http://www.w3.org/2000/svg" viewBox="0 0 236.6 335.49"><defs><style>.cls-1{fill:#af876b;}.cls-1,.cls-10,.cls-11,.cls-12,.cls-2,.cls-3,.cls-4,.cls-5,.cls-6,.cls-7,.cls-8,.cls-9{stroke:#000;stroke-miterlimit:10;}.cls-2{fill:#c9b7a9;}.cls-3{fill:none;}.cls-4{fill:#0a0a0a;}.cls-5{fill:#fff;}.cls-7{fill:#afaa8c;}.cls-8{fill:#366b89;}.cls-9{fill:#894c1f;}.cls-10{fill:#1d546d;}.cls-11{fill:#998271;}.cls-12{fill:#cecdcc;}</style></defs><title>mand sur</title><g id="Layer_2" data-name="Layer 2"><g id="Layer_1-2" data-name="Layer 1"><path class="cls-1" d="M42.22,243.05S5.9,255.95,1.51,253.57,8.4,334.93,8.4,334.93l13-1.53-6.7-67.9,30.06-10.77Z"/><path class="cls-2" d="M62.63,43.78s-10.09,4.66-13.19,21S37.8,122.16,45.94,124.1s5.43,7.37,34.15,8.93,59.76,7.76,104.38-3.49c0,0,15.52-12.42,15.52-33.37,0,0-1.16-35.31-15.91-50.45S62.63,43.78,62.63,43.78Z"/><path class="cls-2" d="M51.1,58.06c-3.42-4.16-6.9.24-6.9.24S36,97.6,39.82,95.32c3.54-2.14,4,1.38,4,1.38"/><path class="cls-3" d="M101.28,71.09S87.6,64.45,73.34,72.46c0,0-1.17,6.64,1.56,10.16,0,0,11.53,5.67,26.37-.78C101.28,81.84,103.82,75.39,101.28,71.09Z"/><path class="cls-3" d="M167.76,67.57S157.3,60.38,142,65.81c0,0-6.25,12.31,0,16.8s22.09,1.91,25.79,0C170,81.43,171.08,73,167.76,67.57Z"/><path class="cls-3" d="M102,76.32a63.16,63.16,0,0,0-28.41.39"/><path class="cls-3" d="M169.71,73.43s-23.21.9-30.46,1.79"/><path class="cls-4" d="M151.38,113.83s-50.21-27.35-83,11.72c0,0-.2,2,2.15,1,0,0,34.58-35.95,76.78-2C147.27,124.58,155.28,121.84,151.38,113.83Z"/><path class="cls-3" d="M130.32,80.93s1.17,7.86,3.32,11.57-11.72,8.79-23.25-1.37a17.24,17.24,0,0,0,0-10.2"/><path class="cls-5" d="M167.45,74.29c-.7,0-24.2.67-26.82,1.75,0,0-4.43,2.93,1.82,7.43s22.09,1.91,25.79,0C170.52,82.29,170.81,73.51,167.45,74.29Z"/><rect class="cls-6" x="149.79" y="77.38" width="5.46" height="5.46" rx="2.73" ry="2.73"/><path class="cls-3" d="M47.5,63.62c-.52.17-3.21-.81-5.06,24.39"/><path d="M87.58,313.15c3,.48,6.52,5.38,2.55,7.08s-15.3-.28-15.3-.28c-17.85,2.83-26.92,2-26.92,2-8.5-.85-5.66-5.73-5.66-5.73C59.48,307.71,87.58,313.15,87.58,313.15Z"/><path class="cls-3" d="M87.58,313.15s-28.1-5.44-45.33,3c0,0-2.84,4.88,5.66,5.73,0,0,9.07.85,26.92-2,0,0,11.34,2,15.3.28S90.55,313.63,87.58,313.15Z"/><path class="cls-6" d="M186.5,324.76s-9.07-9.19-22.39-7.43c0,0-21-1.07-26.92,7.43,0,0-3.4,6.8,28.05,3.4C165.25,328.16,191,333,186.5,324.76Z"/><path class="cls-7" d="M61.13,240.66s-15.46,35-14,72.23c0,0,21.7-5.94,43.1-1.78,0,0,24.08-31.21,31.21-34.33,0,0,22.29,42.06,18.13,42.36,0,0,35.07-8.32,48.75,1.78,0,0-10.7-75.5-14.86-78.77C173.49,242.14,104.83,258.79,61.13,240.66Z"/><path class="cls-3" d="M117.71,249.14s-1.7,12.18-4.82,17h7.8s2.68-12.18,1.55-17"/><path class="cls-3" d="M151,254.76s11.11,2.19,17.85-2.55"/><path class="cls-3" d="M66.85,252.21s11.33,5,22.1,1.53"/><path class="cls-8" d="M71.49,143.33s-41.91,38.58-9.81,99.21c0,0,71.93,19.32,113.54-2.38,0,0,20.81-36.26,4.16-94.22,0,0-30.83-13.21-94.68-4.63Q78.32,142.17,71.49,143.33Z"/><path class="cls-3" d="M84.7,141.31s66.24-5.24,34.75,109.11"/><path class="cls-3" d="M173.11,161.23s-6,5.38-22.1,2"/><path class="cls-9" d="M57.33,37.72s-23.41,6.76-20.55,13c0,0,7,1.82,12.23,0S90.89,38.5,113.26,42.4c0,0,55.41-3.64,57.23-.78,0,0,37.72,6,35.38,1.56s4.42-7.8-28.88-8.84a26.14,26.14,0,0,0-17.95-13,11.42,11.42,0,0,0-8.84-10.41S158.1.27,122.28.52c0,0-23.75-.44-24.63,2.64,0,0-15.14-.69-21.42,16.84C76.24,20,57.85,27.05,57.33,37.72Z"/><path class="cls-3" d="M76.24,20s51.51-7.81,82.81,1.32"/><path class="cls-3" d="M57.33,37.72s75.3-9.5,119.67-3.38"/><path class="cls-10" d="M60.75,157.31s-21.37,6.34-43.2,32c0,0-13.48,19.9-6.42,57.13,0,0,17.85-10,25.62-6.92,0,0-1.22-33.52,14.18-31.59"/><polygon class="cls-11" points="41.95 252.88 33.6 255.44 30.64 243.11 36.81 241.85 38.28 241.55 41.95 252.88"/><path class="cls-11" d="M33.6,255.44l-6.87,2s-3.43,2.5-10.3,2.19A6.91,6.91,0,0,1,11,258.56c-2.5-1.87-.78-8.43-.78-8.43l.94-2.34L22.61,245l8-1.93"/><line class="cls-11" x1="22.61" y1="245.04" x2="26.73" y2="257.47"/><line class="cls-11" x1="14.62" y1="246.95" x2="16.43" y2="259.66"/><line class="cls-3" x1="36.75" y1="239.53" x2="36.81" y2="241.85"/><line class="cls-3" x1="11.14" y1="246.46" x2="11.12" y2="247.79"/><path class="cls-10" d="M185.62,197.74s29.6-22.8,47.89-49c0,0,1.25-24.14-4.57-40.74,0,0-11.64,1.27-19.12-2.47,0,0,3.33,17.46-6.24,29.1L182.33,157.7"/><path class="cls-11" d="M228.94,108s.3-.66.78-1.77c.27-.62,7.51-19.28,6.23-23.52,0,0,.76-3.25-7,0,0,0-.49-5.57-6.44,1,0,0-3.53-7.28-6.62,0,0,0-4.81-4.41-8.91,3.53,0,0-3.24,9.55,2.85,18.25,0,0-2.09-2.68,20.16.08"/><path class="cls-11" d="M208.06,102.94c4.74.9,3.19-6.22,3.19-6.22,3.31-3.15,6.62-2.44,6.62-2.44,0-.36,2.68-6.54-10.9-7"/><polyline class="cls-12" points="193.76 44.49 207.27 51.19 195.18 51.19 200.66 58.64 181.68 43.83"/><path class="cls-12" d="M138.73,41.94s-25.4,20.54-24.32,23.47-.46-4.11,1.22-6.25-9.33,9.94-8.87,11.32,1.68-7.65,1.07-9-6.88,9.64-7.19,8.41,4.84-13.62,8.69-16.52-8.85,6.27-12.21,8.57,13.81-20,13.81-20Z"/></g></g></svg>
