<svg xmlns="http://www.w3.org/2000/svg" viewBox="0 0 248.83 145.38"><defs><style>.cls-1{fill:#c97427;}.cls-1,.cls-3,.cls-4,.cls-5,.cls-6{stroke:#000;stroke-miterlimit:10;}.cls-2,.cls-4{fill:#020201;}.cls-3{fill:none;}.cls-5{fill:#89663d;}</style></defs><title>Ræv går</title><g id="Layer_2" data-name="Layer 2"><g id="Layer_1-2" data-name="Layer 1"><path class="cls-1" d="M58.08,28.9,43.28,14.8l2.28,14.1S38.73,29,33.6,37L6.28,64.31s6.63,6.34,1.51,11.14c0,0,3.61-2.6,37.19-3.74l-22.77,12,35.86-4.61S71.74,91.63,82,91.63c0,0,60.33,7,70-5a243,243,0,0,1,31.87-6.34s8-9.16,0-38.16a36,36,0,0,0-29.6-5.51s-32.44-11-83.09,5.51L66.61,14.8Z"/><path class="cls-2" d="M69.24,32.47v3.06c-28.37,4.72-23.08,7.15-23.08,7.15-4.17,3.82-11.43,0-11.43,0L37,36.92c6.67-3.06,10.57-.28,10.57-.28Z"/><path class="cls-3" d="M34.73,42.68s7.26,3.82,11.43,0c0,0-5.29-2.43,23.08-7.15V32.47L47.55,36.64s-3.9-2.78-10.57.28Z"/><polygon class="cls-4" points="36.98 36.91 37.51 32.46 40.11 30.64 40.11 35.83 36.98 36.91"/><path class="cls-2" d="M210.44,14.32c.73-.25,25.66-9.07,25.34-7.85l-7,7,17.12-2.89-7,3.77,5.71,2.25-17.44,5.61h6.34s-19.66,7.08-18.39,9.3l6.34,1.58S200,40,184.42,43.22a13.11,13.11,0,0,1-7.3-5.07l26.32-24.7-1.27,4.72S207.88,5.8,224.37,1Z"/><path class="cls-3" d="M210.42,14.33h0"/><path class="cls-3" d="M210.44,14.32c.73-.25,25.66-9.07,25.34-7.85l-7,7,17.12-2.89-7,3.77,5.71,2.25-17.44,5.61h6.34s-19.66,7.08-18.39,9.3l6.34,1.58S200,40,184.42,43.22a13.11,13.11,0,0,1-7.3-5.07l26.32-24.7-1.27,4.72S207.88,5.8,224.37,1Z"/><path class="cls-5" d="M170.16,63.18,146.51,62s-14.49,20.69,3,37a18,18,0,0,0,8.87,0S178.44,90.67,170.16,63.18Z"/><path class="cls-5" d="M145.52,139.37l10.32-39.89L149.47,99s-9.4,37.86-9.6,38.42c0,0-4.32,4.66,1,7.49,0,0,4,.33,4.49-1.66A10.13,10.13,0,0,0,145.52,139.37Z"/><circle class="cls-6" cx="142.53" cy="141.92" r="2.96"/><ellipse class="cls-6" cx="139.95" cy="141.3" rx="1.74" ry="2.7"/><path class="cls-1" d="M74.12,89.76l-8.29-4.63s-15.67,17.72-19.32,33.68,12.09,5,12.09,5Z"/><ellipse class="cls-6" cx="50.48" cy="125.18" rx="5.39" ry="9.48" transform="translate(-81.31 154.35) rotate(-80.52)"/><path class="cls-1" d="M85.4,92l-9.95-1.7s-11.81,28.16-6.86,38.27c6.56,13.41,13.05.84,13.05.84Z"/><ellipse class="cls-6" cx="76.34" cy="135.16" rx="7.01" ry="4.32" transform="translate(-20.84 14.12) rotate(-9.3)"/><path class="cls-1" d="M172.71,82s-6.45,26,6,31.85c0,0-5.88,19.93,10.13,8.17,0,0,16.34-16.34-2.29-12.74,0,0-15-6.28-3.92-28.83Z"/><line class="cls-6" x1="186.52" y1="109.25" x2="178.67" y2="113.82"/><polyline class="cls-3" points="8.37 75.44 21.41 82.83 18.33 74.42 28.49 79.68 28.49 73.57 36.34 75.29 36.98 72.04"/><rect class="cls-6" x="0.5" y="64.37" width="9.59" height="10.81" rx="4.79" ry="4.79"/></g></g></svg>
