<svg xmlns="http://www.w3.org/2000/svg" viewBox="0 0 143.23 228.69"><defs><style>.cls-1{fill:#fff;}.cls-2{fill:none;}.cls-2,.cls-3,.cls-4,.cls-5,.cls-6,.cls-7,.cls-8,.cls-9{stroke:#000;stroke-miterlimit:10;}.cls-3{fill:#c97427;}.cls-4{fill:#050504;}.cls-5{fill:#f9f8f7;}.cls-6{fill:#020201;}.cls-7{fill:#89663d;}.cls-8{fill:#070706;}.cls-9{fill:#050404;}</style></defs><title>ræv snakker</title><g id="Layer_2" data-name="Layer 2"><g id="Layer_1-2" data-name="Layer 1"><path class="cls-1" d="M107,156.08c.38.65-.16.27-1-.48A1.47,1.47,0,0,1,107,156.08Z"/><path d="M92.16,129.22l14.63-28.54-8.33,23.67,4.8-6c3.28-13.35,15.4-24,15.4-24l-3,12.9,16.66-11.08L130,100.93l9.09-1.76c-6.82,1.51-8.58,12.34-8.58,12.34l11.61,1.76-8.84,8.31,3,3.27-13.12,2.27c5.86.24,11.26,5,11.59,5.28-2.55-.71-11.09,6.8-11.09,6.8l4.29,3H107.55l10.86,3.27-4.8,2.77,3.28,3.78H102.5s2.2,2.29,3.58,3.55c-3.82-.9-17.21.48-17.21.48l9.85,3.77-12.38,1.51s4.8,4.28,1.52,2.27-13.11,0-13.11,0c3.55-16.12,0-23.92,0-23.92L81,120.57l-.75,10.83,5.55-12.09L84.07,141l6.57-21.41A54.85,54.85,0,0,1,92.4,113C95,105.51,92.27,128.24,92.16,129.22Z"/><path class="cls-2" d="M134.82,132.41h0c-.33-.3-5.73-5-11.59-5.28l13.12-2.27-3-3.27,8.84-8.31-11.61-1.76s1.76-10.83,8.58-12.34L130,100.93l2.27-4.78-16.66,11.08,3-12.9s-12.12,10.63-15.4,24l-4.8,6,8.33-23.67L92.16,129.22v0"/><path class="cls-2" d="M106.08,155.6c-1.38-1.26-3.58-3.55-3.58-3.55h14.39l-3.28-3.78,4.8-2.77-10.86-3.27H128l-4.29-3s8.54-7.51,11.09-6.8"/><path class="cls-2" d="M106.08,155.6a1.47,1.47,0,0,1,1,.48C107.43,156.73,106.89,156.35,106.08,155.6Z"/><path class="cls-2" d="M92.16,129.22c.11-1,2.85-23.71.24-16.2a54.85,54.85,0,0,0-1.76,6.54L84.07,141l1.77-21.66L80.29,131.4,81,120.57l-6.29,19.14s3.55,7.8,0,23.92c0,0,9.83-2,13.11,0s-1.52-2.27-1.52-2.27l12.38-1.51-9.85-3.77s13.39-1.38,17.21-.48"/><path class="cls-3" d="M51.5,25.78,32.69,1,22.75,25.78l4.61,23.71L49,82.06s11.36,7.08,17,0L83.79,51.26s-1.06-3.19,4.61-1.77c0,0,2.48-9.2-5-27.25,0,0-6-14.51-2.84-21.24L63.92,26.84S58.27,34.7,51.5,25.78Z"/><path class="cls-4" d="M70.31,22.24l6-10.26s5,10.26,1.77,10.26C78.12,22.24,76,25.07,70.31,22.24Z"/><path class="cls-4" d="M35.18,12l6.39,8.14s-5.32,2.12-8.52,0S35.18,12,35.18,12Z"/><path class="cls-2" d="M85.13,26.65,74.75,38.17s3.73,3.89,0,6.72c0,0-10.83,1.77-13.67,0,0,0-3.19-5.31,0-7.08,0,0-5.68-3.19-14.9,0,0,0-6-6-18.1-8.85l-5.32-3.19"/><path class="cls-2" d="M61.08,37.81s8.47-2.67,13.67.35"/><path class="cls-5" d="M45.73,39.63a18.05,18.05,0,0,0-11.93-5.46s-2.93,7,0,7.6c0,0,12.32,3.7,11.93,2.92S48.06,41.67,45.73,39.63Z"/><polyline class="cls-6" points="38.3 35.26 37.83 39.63 41.36 36.34"/><path class="cls-2" d="M47.16,79.27s8.23-5.45,20.19.52"/><path class="cls-3" d="M36.13,62.67s-3.77,30.43-5.74,35.16c0,0-6.89,72.49,6.89,81,0,0,3.94,11.78,18.05-1.64L74,164.76s8.53-20.29,8.86-60.23c0,0-3.61-38.3-6.89-39.61l-13.46,19S61,83.67,50.73,82.6C46.45,82.15,40.6,66.44,36.13,62.67Z"/><path class="cls-3" d="M30.55,96.19,10.38,81s.11-.24.23-.63c.59-1.81,1.66-6.78-5.15-5.3-8.27,1.8-3.1,7.74-3.1,7.74S4.95,82.09,6,83a1.24,1.24,0,0,1,.47.85s-2.33,2.58-.26,3.61c0,0,24.3,18.31,22.75,19.85Z"/><polyline class="cls-2" points="9.93 81.12 6.04 82.96 10.38 80.97"/><path class="cls-3" d="M82.9,106.92s29.5-24,30.92-27.73c0,0,7.71-.16,4.59-8.93,0,0-5.44-6.34-11.4,3,0,0-.46,4-2.55,4.53L82.9,96.17Z"/><polyline class="cls-3" points="112.87 78.9 106.59 75.13 113.82 79.19"/><path class="cls-7" d="M67.47,185s7.83-5.54,8.33-11.83c0,0,6.82-19.14,1.26-20.14,0,0-4.8-6.8-12.62-3.27,0,0-12.88,5.79-11.87,18.63,0,0-.25,9.57,5.55,16.62,0,0-1.15,39.58,1.63,40.84h11.5S64.18,183.72,67.47,185Z"/><path class="cls-2" d="M137,126.23"/><path class="cls-3" d="M33.4,173.78c1-2,2.59,7,8.82,9.67,0,0-4.51,32.63-2.47,33a2.08,2.08,0,0,1,.43,1.18c.2,2.63,1.76,8.75-4.31,8.07,0,0-10.62,1.56-7.76-8.84,0,0,1-3.26,3.68-3.46Z"/><path class="cls-3" d="M32.1,213.52s6.43.44,7.54,3.21"/><rect class="cls-4" x="47.7" y="77.99" width="18.04" height="5.96" rx="2.98" ry="2.98"/><rect class="cls-4" x="59.49" y="37.6" width="16.01" height="7.87" rx="3.93" ry="3.93"/><rect class="cls-8" x="0.22" y="75.44" width="11.64" height="7.51" rx="3.75" ry="3.75" transform="translate(-38.79 13.63) rotate(-30)"/><rect class="cls-8" x="107.16" y="68.5" width="12.09" height="11.29" rx="5.65" ry="5.65"/><rect class="cls-9" x="29.31" y="212.56" width="11.2" height="14.17" rx="5.6" ry="5.6" transform="translate(252.94 263.53) rotate(110.41)"/><rect class="cls-9" x="58.19" y="216.73" width="14.45" height="11.46" rx="5.73" ry="5.73"/></g></g></svg>
