<svg xmlns="http://www.w3.org/2000/svg" xmlns:xlink="http://www.w3.org/1999/xlink" viewBox="0 0 796.24 200"><defs><symbol id="a" viewBox="0 0 135.41 341.83"><path d="M108.31,237.69c10.16,18-13.55,80.2-13.55,80.2-14.67,4-48.54,2-55.31-8s6.77-72.18,6.77-72.18C66.54,240.7,108.31,237.69,108.31,237.69Z" style="fill:#afaa8c"/><path d="M94.76,317.89s18.06,4,11.29,19.05c0,0-101.6-8-86.92-9.52,0,0-14.68-5.52,20.32-17.55C46.22,319.9,80.09,321.9,94.76,317.89Z" style="fill:#020202"/><path d="M94.76,317.89s23.71-62.16,13.55-80.2c0,0-41.77,3-62.09,0,0,0-13.55,62.16-6.77,72.18S80.09,321.9,94.76,317.89Z" style="fill:none;stroke:#000;stroke-miterlimit:10"/><path d="M94.76,317.89s18.06,4,11.29,19.05c0,0-101.6-8-86.92-9.52,0,0-14.68-5.52,20.32-17.55" style="fill:none;stroke:#000;stroke-miterlimit:10"/><path d="M32.79,209.05l-18.65,1.79s-3.54,6.27,3,6.27-13.11,0-12.61,8.51l-4,111.52H13.13s-4-102.56.5-100.77c0,0,1-6.72,6-6.72,0,0-4.54-8.06,4.54-11.64l11.6-.9L45.4,205Z" style="fill:#af876b;stroke:#000;stroke-miterlimit:10"/><line x1="17.16" y1="217.11" x2="24.22" y2="218.01" style="fill:none;stroke:#000;stroke-miterlimit:10"/><path d="M108,117.86s53.06,110.27,10.16,120.3c0,0-16.93,16-67.73,8,0,0-42.9-13,0-128.32Z" style="fill:#366b89;stroke:#000;stroke-miterlimit:10"/><path d="M105.57,236.44C85.62,242.82,66,248,45,251.1c2.17,16.37-2.23,55.64,10.53,67.52s40.44,2,54.73-3.23C113.71,293.16,118.25,255.38,105.57,236.44Z" style="fill:#afaa8c;stroke:#000;stroke-miterlimit:10"/><path d="M110.36,315.29c10.52.46,15.51,5.64,15.12,16.12-16.9,2.41-91.94,12-86.93,9.51C24.23,337.54,53.49,320,54.6,319.29" style="fill:#020202;stroke:#000;stroke-miterlimit:10"/><path d="M85.75,147.58C84.39,164,83.65,180.52,82.11,197,74.28,210.68,62.54,219.07,48,224.69c-6.31-5.17-12.7-10.25-19-15.46,7.47-9.2,14.82-18.5,21.72-28.15.06-11.19-.21-22.38-.16-33.58C63.48,139.1,73.89,136.15,85.75,147.58Z" style="fill:#1d546d;stroke:#000;stroke-miterlimit:10"/><path d="M48,224.69c-8.58,2.8-11.73,14.45-14.18,21.79-5,1.91-7-.86-7.42-5.63-5.35,2-5.69-.58-3.17-5.11-7.11-.08-9.69-2.32-3.58-7.78C1.62,221.49,22,212.6,29.06,209.23" style="fill:#998271;stroke:#000;stroke-miterlimit:10"/><path d="M38.44,105.57c6-3,12.6-5,19.23-2.52-1.08,2.13-.73,4.34-2.2,6.44-.79,1.14-1.11.86-3.66-.09S41.87,106.67,38.44,105.57Z" style="fill:#050505;stroke:#000;stroke-miterlimit:10"/><path d="M97.24,24.93c-.09-.34-5.36-4.87-7.64-4.31-10,2.47-49.74,4.64-53.7,11.23s-2.83,17.4-4.54,28.92C31,63.43,33.6,80.14,34,84.91c-3,5.73-6.14,10.41-9.17,15.75,2.05,6.85,6.1,7.71,11.63,3.48.25,9.13,3.43,15.75,13.21,15.83,19.3,0,39.8-.94,56.55-11.22C118.48,103.71,99.47,33.76,97.24,24.93Z" style="fill:#c9b7a9;stroke:#000;stroke-miterlimit:10"/><path d="M58.65,56.37C63.8,49.82,71.39,40,73.18,54.63c1.2,8.55,2.12,17.19,1.18,25.8-2.64,6.57-8-.05-10.38-3.05" style="fill:none;stroke:#000;stroke-miterlimit:10"/><path d="M64.86,60.46c2.67-1.79,3.56.16,3.79,2.77.27,2.91,1,6.15,1.17,9s-2.17,1.45-3.42.48" style="fill:none;stroke:#000;stroke-miterlimit:10"/><path d="M31.35,59.18c3.07-1.65,6.14-.61,9,1,1.68,4,5.56,11.77.63,14.4-2.74,1-6.07,2.1-8.33-.24" style="fill:none;stroke:#000;stroke-miterlimit:10"/><path d="M43.15,69,31.9,68.27" style="fill:none;stroke:#000;stroke-miterlimit:10"/><path d="M72.24,23.14Q79.65,34,87.15,44.85q-.68-5.74-1.34-11.49c3,1.19,6,2.34,9,3.51q-3.3-7.78-6.56-15.6C82.9,21.9,77.57,22.5,72.24,23.14Z" style="fill:#cecdcc;stroke:#000;stroke-miterlimit:10"/><path d="M94.5,20.39C83,20.91,40.09,25.49,34.61,31.8S20.5,30.54,24.86,27c3-.47,5.39-.65,8.15-1-8.63-1.22-5.63-4.36,1-7.28-5.83-.49-10.06-2-1.8-6.18,6.19-3.15,32.57-16,38.45-10.76,5.28,3.42,1.6,5.34-3,6.29,3.87.19,15.93-.11,15.39,5.36C87.69,13.78,105.89,14.33,94.5,20.39Z" style="fill:#894c1f;stroke:#000;stroke-miterlimit:10"/><path d="M68.15,8.5C56.8,10.27,46,13.83,35.42,18.2" style="fill:none;stroke:#000;stroke-miterlimit:10"/><path d="M82.69,13.46c-11-3.31-22.1-.11-32.45,3.74" style="fill:none;stroke:#000;stroke-miterlimit:10"/><path d="M34.74,32.12c-4.18,5.56-11,15.49-11.82,21.68s-1.78-4.36-1.06-6.88c-1.19,1.79-2.5,3.9-3.73,5.82,1.29-3.23,1-4.94-2.65-2.7,1.13-7.58,9.8-12.33,15.75-16C31.58,33.79,34.12,32.36,34.74,32.12Z" style="fill:#cecdcc;stroke:#000;stroke-miterlimit:10"/><path d="M34.81,69.21c1.76.12,5.44.14,7.62.27,0,1,1.62,4-.08,4.58s-6.75.79-8.23,1.08a6,6,0,0,1-1.39.16c-.11-1.47-.53-4.49-.66-5.57a4.19,4.19,0,0,0-.14-.94A22.85,22.85,0,0,0,34.81,69.21Z" style="fill:#f9f8f7;stroke:#000;stroke-miterlimit:10"/><path d="M36,75.07h0A2.58,2.58,0,0,1,33,72.84h0A2.57,2.57,0,0,1,35.31,70h0a2.6,2.6,0,0,1,2.92,2.24h0A2.56,2.56,0,0,1,36,75.07Z"/></symbol><symbol id="c" viewBox="0 0 146.41 341.4"><path d="M119.31,241.62c10.16,18-13.55,80.2-13.55,80.2-14.67,4-48.54,2-55.31-8s6.77-72.18,6.77-72.18C77.54,244.63,119.31,241.62,119.31,241.62Z" style="fill:#afaa8c"/><path d="M105.76,321.82s18.06,4,11.29,19.05c0,0-101.6-8-86.92-9.52,0,0-14.68-5.52,20.32-17.55C57.22,323.83,91.09,325.83,105.76,321.82Z" style="fill:#020202"/><path d="M105.76,321.82s23.71-62.16,13.55-80.2c0,0-41.77,3-62.09,0,0,0-13.55,62.16-6.77,72.18S91.09,325.83,105.76,321.82Z" style="fill:none;stroke:#000;stroke-miterlimit:10"/><path d="M105.76,321.82s18.06,4,11.29,19.05c0,0-101.6-8-86.92-9.52,0,0-14.68-5.52,20.32-17.55" style="fill:none;stroke:#000;stroke-miterlimit:10"/><path d="M32.79,204.52l-18.65,1.79s-3.54,6.27,3,6.27-13.11,0-12.61,8.51l-4,111.52H13.13s-4-102.56.5-100.77c0,0,1-6.72,6-6.72,0,0-4.54-8.06,4.54-11.64l11.6-.9,9.58-12.09Z" style="fill:#af876b;stroke:#000;stroke-miterlimit:10"/><line x1="17.16" y1="212.58" x2="24.22" y2="213.48" style="fill:none;stroke:#000;stroke-miterlimit:10"/><path d="M119,121.79s53.06,110.28,10.16,120.3c0,0-16.93,16-67.73,8,0,0-42.9-13,0-128.32Z" style="fill:#366b89;stroke:#000;stroke-miterlimit:10"/><path d="M120,245.38c-20.65,3.33-41,5.11-62.2,4.15-.57,15.45-11.32,49.5-.5,62.56s39.94,7.53,54.63,4.3C118.64,294.76,129.79,267.23,120,245.38Z" style="fill:#afaa8c;stroke:#000;stroke-miterlimit:10"/><path d="M112.09,316.32c10.48,2.16,14.53,7.88,12.62,18.41-16.37,0-93-1.12-87.39-3-13.81-5.55,17.75-18.56,19-19.15" style="fill:#020202;stroke:#000;stroke-miterlimit:10"/><path d="M97.43,155,83.88,203.09s-14.67,19-38.38,23.06L28.57,208.56,55.66,182,63,148S89.53,135.92,97.43,155Z" style="fill:#1d546d;stroke:#000;stroke-miterlimit:10"/><path d="M45.5,226.15s-9,1-16.93,20c0,0-8.21,2.48-6.7-6.48,0,0-9.58,2.55-2.52-5.45,0,0-14.78-1.53-2.6-8.12,0,0-20.32-8.89,11.82-17.59" style="fill:#998271;stroke:#000;stroke-miterlimit:10"/><path d="M49.81,106.69c6.18-2.73,12.85-4.31,19.33-1.37-1.18,2.08-.94,4.34-2.52,6.37-.86,1.1-1.16.79-3.65-.31S53.18,108,49.81,106.69Z" style="fill:#050505;stroke:#000;stroke-miterlimit:10"/><path d="M112.24,26.32c-.07-.35-5.11-5.17-7.46-4.7-10.25,2-49.67,2.22-54.1,8.92S47.12,48,44.83,59.86c-.53,2.74,1.41,20.5,1.6,25.52-3.18,5.76-6.59,10.36-9.92,15.63,1.69,7,5.67,8.13,11.43,4.11-.2,9.18,2.55,16,12.39,16.71,19.31,1.16,39.81,1.25,57-8.3C130,109,114.07,35.51,112.24,26.32Z" style="fill:#c9b7a9;stroke:#000;stroke-miterlimit:10"/><path d="M72.29,56.58c5.51-6.71,13.44-16.36,14.59-1,.84,9.09,1.38,18.24,0,27.3-2.94,6.77-8.06-.61-10.23-3.79" style="fill:none;stroke:#000;stroke-miterlimit:10"/><path d="M78.32,61.22c2.84-1.81,3.55.53,3.67,3.14.14,3.07.73,6.57.77,9.54s-2.19,1.45-3.44.33" style="fill:none;stroke:#000;stroke-miterlimit:10"/><path d="M44.9,58.19c3.15-1.58,6.19-.31,8.94,1.44,1.49,4.19,5.1,12.63,0,15.17-2.82,1-6.18,1.88-8.31-.68" style="fill:none;stroke:#000;stroke-miterlimit:10"/><path d="M56.26,69.11,45.05,67.75" style="fill:none;stroke:#000;stroke-miterlimit:10"/><path d="M87.33,23.31q7,11.43,14,22.9-.42-6-.85-12c2.95,1.36,5.89,2.74,8.84,4.11l-5.88-16.16C98,22.58,92.69,23,87.33,23.31Z" style="fill:#cecdcc;stroke:#000;stroke-miterlimit:10"/><path d="M109.69,21.62C98,21.55,55.33,24.17,49.4,30.4s-14-2-9.57-5.25c3-.36,5.41-.41,8.2-.64-8.56-1.65-5.44-4.63,1.34-7.28-5.79-.74-10-2.38-1.51-6.22C54.18,8.14,81.12-3.54,86.76,2c5.13,3.63,1.31,5.38-3.33,6.11,3.86.36,15.93.59,15.13,6C103.21,14.68,121.34,16,109.69,21.62Z" style="fill:#894c1f;stroke:#000;stroke-miterlimit:10"/><path d="M83.92,8.53C72.5,9.81,61.56,12.9,50.78,16.78" style="fill:none;stroke:#000;stroke-miterlimit:10"/><path d="M98.22,14.11C87.39,10.3,76.13,13,65.63,16.42" style="fill:none;stroke:#000;stroke-miterlimit:10"/><path d="M49.47,30.77c-4.4,5.35-11.7,15-12.79,21.11S35.1,47.45,35.93,45c-1.27,1.73-2.67,3.76-4,5.61,1.45-3.16,1.2-4.86-2.52-2.81,1.48-7.49,10.37-11.86,16.46-15.28C46.24,32.28,48.85,31,49.47,30.77Z" style="fill:#cecdcc;stroke:#000;stroke-miterlimit:10"/><path d="M47.92,68.89c1.75.22,5.43.43,7.59.68,0,1,1.46,4.26-.27,4.81s-6.78.49-8.28.72-.41,0-1.4.09c0-1.56-.32-4.75-.4-5.9a4.09,4.09,0,0,0-.11-1A24.54,24.54,0,0,0,47.92,68.89Z" style="fill:#f9f8f7;stroke:#000;stroke-miterlimit:10"/><path d="M48.8,75.12h0A2.65,2.65,0,0,1,46,72.61h0a2.65,2.65,0,0,1,2.41-2.89h0a2.65,2.65,0,0,1,2.81,2.51h0A2.65,2.65,0,0,1,48.8,75.12Z"/></symbol><symbol id="d" viewBox="0 0 146.41 343.6"><path d="M119.31,240c10.16,18-13.55,80.2-13.55,80.2-14.67,4-48.54,2-55.31-8S57.22,240,57.22,240C77.54,243,119.31,240,119.31,240Z" style="fill:#afaa8c"/><path d="M105.76,320.21s18.06,4,11.29,19.05c0,0-101.6-8-86.92-9.52,0,0-14.68-5.52,20.32-17.55C57.22,322.22,91.09,324.22,105.76,320.21Z" style="fill:#020202"/><path d="M105.76,320.21s23.71-62.16,13.55-80.2c0,0-41.77,3-62.09,0,0,0-13.55,62.16-6.77,72.18S91.09,324.22,105.76,320.21Z" style="fill:none;stroke:#000;stroke-miterlimit:10"/><path d="M105.76,320.21s18.06,4,11.29,19.05c0,0-101.6-8-86.92-9.52,0,0-14.68-5.52,20.32-17.55" style="fill:none;stroke:#000;stroke-miterlimit:10"/><path d="M32.79,202.91,14.14,204.7s-3.54,6.27,3,6.27-13.11,0-12.61,8.51L.52,331H13.13s-4-102.56.5-100.77c0,0,1-6.72,6-6.72,0,0-4.54-8.06,4.54-11.64l11.6-.9,9.58-12.09Z" style="fill:#af876b;stroke:#000;stroke-miterlimit:10"/><line x1="17.16" y1="210.97" x2="24.22" y2="211.87" style="fill:none;stroke:#000;stroke-miterlimit:10"/><path d="M119,120.17s53.06,110.28,10.16,120.31c0,0-16.93,16-67.73,8,0,0-42.9-13,0-128.33Z" style="fill:#366b89;stroke:#000;stroke-miterlimit:10"/><path d="M121,246.54c-20.87,1.63-41.14,2.09-62.3.25-1.74,16.72-14.54,54.07-4.63,68.76s39.09,10.51,54.16,8.64C116.2,303.58,128.92,267.34,121,246.54Z" style="fill:#afaa8c;stroke:#000;stroke-miterlimit:10"/><path d="M108.34,324.12c10.14,2.74,14,8.79,11.33,18.95-17.16-1.29-92.33-8-86.95-9.39C19.46,327.32,51.8,316.56,53,316.08" style="fill:#020202;stroke:#000;stroke-miterlimit:10"/><path d="M97.43,153.36,83.88,201.48S69.21,220.53,45.5,224.54L28.57,207l27.09-26.52L63,146.34S89.53,134.31,97.43,153.36Z" style="fill:#1d546d;stroke:#000;stroke-miterlimit:10"/><path d="M45.5,224.54s-9,1-16.93,20.05c0,0-8.21,2.47-6.7-6.49,0,0-9.58,2.55-2.52-5.44,0,0-14.78-1.53-2.6-8.12,0,0-20.32-8.89,11.82-17.59" style="fill:#998271;stroke:#000;stroke-miterlimit:10"/><path d="M49.51,106.34c6.1-2.87,12.72-4.64,19.29-1.94-1.14,2.11-.84,4.34-2.36,6.41-.82,1.12-1.14.83-3.66-.2S52.91,107.55,49.51,106.34Z" style="fill:#050505;stroke:#000;stroke-miterlimit:10"/><path d="M109.91,25.53c-.07-.35-5.27-5-7.58-4.49-10.07,2.28-49.74,3.62-53.88,10.28s-3.13,17.45-5.08,29.13c-.45,2.7,1.89,20,2.21,24.86-3.06,5.75-6.34,10.41-9.52,15.72,1.88,6.91,5.89,7.94,11.54,3.8,0,9.17,3,15.93,12.82,16.31,19.33.59,39.83.21,56.81-9.73C129.71,106.6,112,34.56,109.91,25.53Z" style="fill:#c9b7a9;stroke:#000;stroke-miterlimit:10"/><path d="M70.75,56.53c5.31-6.67,13-16.4,14.56-1.41,1,8.85,1.81,17.78.68,26.66-2.77,6.69-8-.35-10.31-3.44" style="fill:none;stroke:#000;stroke-miterlimit:10"/><path d="M76.89,60.9c2.75-1.82,3.56.35,3.74,3,.21,3,.88,6.39,1,9.29s-2.17,1.46-3.43.42" style="fill:none;stroke:#000;stroke-miterlimit:10"/><path d="M43.4,58.82c3.1-1.63,6.16-.48,9,1.16,1.6,4.08,5.37,12.21.36,14.82-2.78,1-6.13,2-8.32-.45" style="fill:none;stroke:#000;stroke-miterlimit:10"/><path d="M55,69.18l-11.23-1" style="fill:none;stroke:#000;stroke-miterlimit:10"/><path d="M84.93,23.21q7.26,11.16,14.53,22.3-.58-5.88-1.15-11.75l8.94,3.79L101,21.66Z" style="fill:#cecdcc;stroke:#000;stroke-miterlimit:10"/><path d="M107.24,20.91c-11.6.26-54.42,4-60.07,10.31s-14.06-1.56-9.68-5c3-.41,5.4-.54,8.17-.85-8.6-1.4-5.54-4.47,1.16-7.29-5.82-.59-10-2.13-1.68-6.19C51.38,8.85,78-3.54,83.78,1.83,89,5.34,85.26,7.19,80.62,8.05c3.87.26,15.94.18,15.29,5.64C100.56,14.15,118.74,15,107.24,20.91Z" style="fill:#894c1f;stroke:#000;stroke-miterlimit:10"/><path d="M81.12,8.51c-11.38,1.57-22.23,4.93-32.9,9.1" style="fill:none;stroke:#000;stroke-miterlimit:10"/><path d="M95.56,13.72c-10.92-3.52-22.1-.51-32.51,3.15" style="fill:none;stroke:#000;stroke-miterlimit:10"/><path d="M47.27,31.57C43,37,36,46.86,35.05,53s-1.7-4.38-.93-6.89c-1.23,1.77-2.57,3.84-3.84,5.73,1.36-3.2,1.07-4.9-2.6-2.75,1.28-7.53,10-12.13,16-15.71C44.09,33.17,46.65,31.8,47.27,31.57Z" style="fill:#cecdcc;stroke:#000;stroke-miterlimit:10"/><path d="M46.68,69.18c1.75.17,5.44.28,7.61.47,0,1,1.55,4.12-.17,4.7s-6.76.65-8.25.91-.41,0-1.4.13c-.07-1.52-.43-4.62-.54-5.74a4.86,4.86,0,0,0-.13-1A22.77,22.77,0,0,0,46.68,69.18Z" style="fill:#f9f8f7;stroke:#000;stroke-miterlimit:10"/><path d="M47.7,75.24h0a2.63,2.63,0,0,1-2.87-2.37h0A2.61,2.61,0,0,1,47.17,70h0A2.62,2.62,0,0,1,50,72.35h0A2.61,2.61,0,0,1,47.7,75.24Z"/></symbol><symbol id="e" viewBox="0 0 146.25 345.32"><path d="M56,306.46c10.92,13.71,39.76,7.91,54.65,4.81a.49.49,0,0,1,0-.11l.1,0c10.37,2.08,14.54,7.75,12.57,18.17-17.12-.15-92.66-1.77-87.39-3.48C22.23,320.38,53.79,307.56,55,307Z" style="fill:#020202"/><path d="M118.37,236.73c8.9,20.08-1.2,53.7-7.73,74.43a.49.49,0,0,0,0,.11c-14.89,3.1-43.73,8.9-54.65-4.81s-.53-49.82.24-66.11C77.39,241.11,97.65,239.47,118.37,236.73Z" style="fill:#afaa8c"/><path d="M110.64,311.16c6.53-20.73,16.63-54.35,7.73-74.43-20.72,2.74-41,4.38-62.18,3.62C55.42,256.64,45,292.74,56,306.46s39.76,7.91,54.65,4.81A.49.49,0,0,1,110.64,311.16Z" style="fill:none;stroke:#000;stroke-miterlimit:10"/><path d="M110.74,311.19c10.37,2.08,14.54,7.75,12.57,18.17-17.12-.15-92.66-1.77-87.39-3.48C22.23,320.38,53.79,307.56,55,307" style="fill:none;stroke:#000;stroke-miterlimit:10"/><path d="M121,245.54s-41.77,3-62.09,0c0,0-13.55,62.16-6.78,72.19s40.64,12,55.32,8C107.48,325.75,131.19,263.59,121,245.54Z" style="fill:#afaa8c;stroke:#000;stroke-miterlimit:10"/><path d="M107.48,325.75s18.06,4,11.29,19c0,0-101.6-8-86.93-9.52,0,0-14.67-5.51,20.32-17.54" style="fill:#020202;stroke:#000;stroke-miterlimit:10"/><path d="M32.52,200.53c-5.2,1-12.69,1.12-18.37,2-1.52,3.3-1.34,5.84,3.15,6.17s-11.07,3.58-12.76,8.61q-1.93,55.65-4,111.36l12.61,0c-.49-12.83-4-96.75.51-100.63.68-3.56,2.41-6,6.05-6.72-2.62-5.31-.22-8.94,4.52-11.66l11.59-.93c3.21-4,6.3-8.12,9.56-12.14C40.6,197.69,37.73,199.55,32.52,200.53Z" style="fill:#af876b;stroke:#000;stroke-miterlimit:10"/><path d="M17.16,208.74l7.05.87" style="fill:none;stroke:#000;stroke-miterlimit:10"/><path d="M118.92,118c11.34,23.92,47.83,107.5,10.28,120-17.17,14.77-47.66,10.64-67.73,8.13C23.08,233.39,53.49,139,61.41,118,80.58,117.92,99.75,118,118.92,118Z" style="fill:#366b89;stroke:#000;stroke-miterlimit:10"/><path d="M97.13,150.82q-6.72,24.12-13.34,48.27C73.73,211.4,60.65,218.2,45.5,222.24L28.55,204.68c9-8.88,17.94-17.81,26.92-26.7q3.59-17.1,7.28-34.18C77.08,138,87.74,137.14,97.13,150.82Z" style="fill:#1d546d;stroke:#000;stroke-miterlimit:10"/><path d="M45.5,222.24c-8.87,1.89-13.51,13-16.92,20.07-5.16,1.28-6.85-1.66-6.7-6.47-5.54,1.3-5.62-1.22-2.52-5.43-7.06-.92-9.38-3.45-2.6-8.11-17.24-8.6,4.49-15.08,11.79-17.62" style="fill:#998271;stroke:#000;stroke-miterlimit:10"/><path d="M50.16,101.12c6.33-2.2,13.07-3.32,19.32-.05-1.37,1.93-1.35,4.11-3.09,6-.93,1-1.2.71-3.59-.53S53.39,102.62,50.16,101.12Z" style="fill:#050505;stroke:#000;stroke-miterlimit:10"/><path d="M119.24,28.62c0-.35-4.76-5.47-7.09-5.2-10.21,1.19-49.89-1.26-54.65,4.71s-5,17.17-8.11,28.09c-.73,2.52-.46,19.32-.74,24-3.75,5.23-7.56,9.41-11.26,14.3,1.13,7.05,5,8.31,11,4.89-1,9,1.21,15.81,10.83,17.07,19.14,2.37,39.51,4,57.46-3.86C130,109.2,120.31,37.66,119.24,28.62Z" style="fill:#c9b7a9;stroke:#000;stroke-miterlimit:10"/><path d="M77.06,55.22c5.91-5.78,14.78-14.74,14.61.05,0,8.64-.28,17.32-2.45,25.7-3.51,6.08-7.84-1-9.82-4.31" style="fill:none;stroke:#000;stroke-miterlimit:10"/><path d="M82.65,60c2.88-1.44,3.5.58,3.37,3.21-.14,2.91.13,6.23-.1,9s-2.32,1.19-3.45.06" style="fill:none;stroke:#000;stroke-miterlimit:10"/><path d="M49.59,54.64c3.25-1.23,6.17.17,8.8,2.06C59.55,60.87,62.25,69,57,71c-2.83.69-6.29,1.33-8.22-1.28" style="fill:none;stroke:#000;stroke-miterlimit:10"/><path d="M60,65.8,48.91,63.68" style="fill:none;stroke:#000;stroke-miterlimit:10"/><path d="M94.63,23.84q6.08,11.73,12.14,23.45c0-3.9.06-7.8.08-11.7,2.83,1.55,5.65,3.11,8.49,4.64q-2.3-8.16-4.62-16.33Z" style="fill:#cecdcc;stroke:#000;stroke-miterlimit:10"/><path d="M117,23.78c-11.5-.89-54.6-1.45-60.81,4.17s-13.86-3-9.13-6c3-.11,5.43,0,8.22,0-8.39-2.29-5.12-5,1.87-7.13-5.71-1.2-9.79-3.16-1.06-6.36,6.53-2.39,34.23-12,39.45-6.06,4.84,4,1,5.5-3.75,5.88,3.84.67,15.85,1.81,14.67,7.18C111.06,16.39,129.08,19.13,117,23.78Z" style="fill:#894c1f;stroke:#000;stroke-miterlimit:10"/><path d="M92.28,8.8c-11.47.4-22.61,2.64-33.64,5.7" style="fill:none;stroke:#000;stroke-miterlimit:10"/><path d="M106.15,15.47c-10.51-4.6-21.94-2.76-32.68-.18" style="fill:none;stroke:#000;stroke-miterlimit:10"/><path d="M56.32,28.3c-4.81,5-12.8,14-14.32,20s-1.25-4.53-.24-7c-1.4,1.64-2.94,3.57-4.39,5.33,1.67-3.05,1.56-4.78-2.31-3,2-7.39,11.18-11.05,17.54-14C53,29.56,55.67,28.46,56.32,28.3Z" style="fill:#cecdcc;stroke:#000;stroke-miterlimit:10"/><path d="M51.67,65c1.72.34,5.38.81,7.51,1.21-.15,1,1,4.12-.72,4.49s-6.8-.06-8.32,0a6.24,6.24,0,0,1-1.4,0c.11-1.46.12-4.47.14-5.56a3.57,3.57,0,0,0,0-.93A25.26,25.26,0,0,0,51.67,65Z" style="fill:#f9f8f7;stroke:#000;stroke-miterlimit:10"/><path d="M52,70.87h0a2.54,2.54,0,0,1-2.57-2.56h0a2.61,2.61,0,0,1,2.66-2.53h0a2.54,2.54,0,0,1,2.58,2.56h0A2.61,2.61,0,0,1,52,70.87Z"/></symbol><symbol id="f" viewBox="0 0 146.41 344.48"><path d="M106.56,340.42c-17-3-91.14-16.95-85.81-17.74-12.66-7.57,20.56-15.21,21.83-15.57l1.05-.51c8.51,16,38,14.12,53.25,13.86l.06-.12.09.05C106.81,324.08,110.06,330.62,106.56,340.42Z" style="fill:#020202"/><path d="M120.51,242.25c5.57,22.4-13.28,57.55-23.57,78.09l-.06.12c-15.28.26-44.74,2.19-53.25-13.86S54.75,252,58.84,235C79.52,239.26,99.71,241.26,120.51,242.25Z" style="fill:#afaa8c"/><path d="M96.94,320.34c10.29-20.54,29.14-55.69,23.57-78.09-20.8-1-41-3-61.67-7.29-4.09,17-23.72,55.59-15.21,71.64s38,14.12,53.25,13.86Z" style="fill:none;stroke:#000;stroke-miterlimit:10"/><path d="M97,320.39c9.78,3.69,13,10.23,9.53,20-17-3-91.14-16.95-85.81-17.74-12.66-7.57,20.56-15.21,21.83-15.57" style="fill:none;stroke:#000;stroke-miterlimit:10"/><path d="M32.79,200.85l-18.65,1.79s-3.54,6.27,3,6.27-13.11,0-12.61,8.51l-4,111.52H13.13s-4-102.56.5-100.77c0,0,1-6.72,6-6.72,0,0-4.54-8.06,4.54-11.64l11.6-.9,9.58-12.09Z" style="fill:#af876b;stroke:#000;stroke-miterlimit:10"/><line x1="17.16" y1="208.91" x2="24.22" y2="209.81" style="fill:none;stroke:#000;stroke-miterlimit:10"/><path d="M119,118.12s53.06,110.28,10.16,120.3c0,0-16.93,16-67.73,8,0,0-42.9-13,0-128.32Z" style="fill:#366b89;stroke:#000;stroke-miterlimit:10"/><path d="M120.94,244.7s-41.77,3-62.09,0c0,0-13.55,62.16-6.77,72.18s40.64,12,55.31,8C107.39,324.9,131.1,262.74,120.94,244.7Z" style="fill:#afaa8c;stroke:#000;stroke-miterlimit:10"/><path d="M107.39,324.9s18.06,4,11.29,19.05c0,0-101.6-8-86.92-9.52,0,0-14.68-5.52,20.32-17.55" style="fill:#020202;stroke:#000;stroke-miterlimit:10"/><path d="M97.43,151.3,83.88,199.42S69.21,218.47,45.5,222.48L28.57,204.89l27.09-26.52L63,144.28S89.53,132.25,97.43,151.3Z" style="fill:#1d546d;stroke:#000;stroke-miterlimit:10"/><path d="M45.5,222.48s-9,1-16.93,20.05c0,0-8.21,2.48-6.7-6.48,0,0-9.58,2.55-2.52-5.45,0,0-14.78-1.53-2.6-8.12,0,0-20.32-8.89,11.82-17.59" style="fill:#998271;stroke:#000;stroke-miterlimit:10"/><path d="M49.94,105.56c6-3,12.59-5,19.23-2.52-1.09,2.13-.74,4.34-2.21,6.45-.8,1.14-1.12.86-3.66-.09S53.36,106.66,49.94,105.56Z" style="fill:#050505;stroke:#000;stroke-miterlimit:10"/><path d="M108.62,24.92c-.08-.34-5.4-4.88-7.68-4.31C91,23.08,51.25,25.34,47.27,32S44.5,49.28,42.82,60.82c-.39,2.67,2.28,19.3,2.71,24.07-3,5.72-6.14,10.41-9.16,15.74,2,6.85,6.09,7.72,11.62,3.49.25,9.13,3.42,15.76,13.2,15.86,19.32,0,39.81-.88,56.56-11.17C130.06,103.74,110.82,33.75,108.62,24.92Z" style="fill:#c9b7a9;stroke:#000;stroke-miterlimit:10"/><path d="M70.1,56.37c5.15-6.55,12.69-16.28,14.52-1.72,1.23,8.54,2.17,17.16,1.23,25.77-2.62,6.56-8-.07-10.38-3" style="fill:none;stroke:#000;stroke-miterlimit:10"/><path d="M76.32,60.46c2.67-1.79,3.56.17,3.8,2.78.28,2.9,1,6.13,1.19,9s-2.17,1.45-3.42.48" style="fill:none;stroke:#000;stroke-miterlimit:10"/><path d="M42.81,59.24c3.06-1.66,6.14-.62,9,.91,1.7,4,5.58,11.75.66,14.38-2.74,1.06-6.07,2.1-8.33-.24" style="fill:none;stroke:#000;stroke-miterlimit:10"/><path d="M54.63,69,43.38,68.3" style="fill:none;stroke:#000;stroke-miterlimit:10"/><path d="M83.59,23.15Q91,34.06,98.57,44.9c-.46-3.84-.93-7.68-1.38-11.52,3,1.19,6,2.34,9,3.5q-3.33-7.8-6.62-15.62Z" style="fill:#cecdcc;stroke:#000;stroke-miterlimit:10"/><path d="M105.84,20.37C94.28,20.89,51.49,25.56,46,31.93s-14.09-1.27-9.77-4.81c3-.48,5.38-.65,8.15-1-8.63-1.23-5.65-4.36,1-7.31-5.83-.48-10.08-1.94-1.82-6.18C49.73,9.44,76.08-3.53,82,1.75c5.29,3.4,1.61,5.34-3,6.29,3.88.19,15.94-.13,15.41,5.35C99,13.75,117.22,14.28,105.84,20.37Z" style="fill:#894c1f;stroke:#000;stroke-miterlimit:10"/><path d="M79.45,8.5c-11.34,1.8-22.12,5.39-32.69,9.79" style="fill:none;stroke:#000;stroke-miterlimit:10"/><path d="M94,13.43c-11-3.29-22.1-.06-32.44,3.82" style="fill:none;stroke:#000;stroke-miterlimit:10"/><path d="M46.11,32.27c-4.15,5.56-11,15.48-11.76,21.67s-1.78-4.35-1.07-6.88c-1.19,1.8-2.49,3.91-3.72,5.83,1.29-3.23,1-4.94-2.65-2.69C28,42.62,36.66,37.86,42.6,34.15,43,33.93,45.5,32.51,46.11,32.27Z" style="fill:#cecdcc;stroke:#000;stroke-miterlimit:10"/><path d="M46.3,69.23c1.75.12,5.44.13,7.61.26,0,1,1.63,4-.07,4.57s-6.75.8-8.23,1.08a6.23,6.23,0,0,1-1.39.17c-.11-1.48-.53-4.48-.67-5.56a3.65,3.65,0,0,0-.14-.94A22.76,22.76,0,0,0,46.3,69.23Z" style="fill:#f9f8f7;stroke:#000;stroke-miterlimit:10"/><path d="M47.45,75.08h0a2.6,2.6,0,0,1-2.92-2.23h0A2.55,2.55,0,0,1,46.8,70h0a2.6,2.6,0,0,1,2.92,2.23h0A2.57,2.57,0,0,1,47.45,75.08Z"/></symbol><symbol id="g" viewBox="0 0 146.41 346.17"><path d="M119.31,239.64c10.16,18-13.55,80.2-13.55,80.2-14.67,4-48.54,2-55.31-8s6.77-72.18,6.77-72.18C77.54,242.65,119.31,239.64,119.31,239.64Z" style="fill:#afaa8c"/><path d="M105.76,319.84s18.06,4,11.29,19.05c0,0-101.6-8-86.92-9.52,0,0-14.68-5.52,20.32-17.55C57.22,321.85,91.09,323.85,105.76,319.84Z" style="fill:#020202"/><path d="M105.76,319.84s23.71-62.16,13.55-80.2c0,0-41.77,3-62.09,0,0,0-13.55,62.16-6.77,72.18S91.09,323.85,105.76,319.84Z" style="fill:none;stroke:#000;stroke-miterlimit:10"/><path d="M105.76,319.84s18.06,4,11.29,19.05c0,0-101.6-8-86.92-9.52,0,0-14.68-5.52,20.32-17.55" style="fill:none;stroke:#000;stroke-miterlimit:10"/><path d="M32.79,202.55l-18.65,1.79s-3.54,6.27,3,6.27-13.11,0-12.61,8.51l-4,111.52H13.13s-4-102.57.5-100.77c0,0,1-6.72,6-6.72,0,0-4.54-8.06,4.54-11.65l11.6-.89,9.58-12.1Z" style="fill:#af876b;stroke:#000;stroke-miterlimit:10"/><line x1="17.16" y1="210.61" x2="24.22" y2="211.5" style="fill:none;stroke:#000;stroke-miterlimit:10"/><path d="M119,119.81s53.06,110.28,10.16,120.31c0,0-16.93,16-67.73,8,0,0-42.9-13,0-128.33Z" style="fill:#366b89;stroke:#000;stroke-miterlimit:10"/><path d="M120.94,246.39s-41.77,3-62.09,0c0,0-13.55,62.16-6.77,72.19s40.64,12,55.31,8C107.39,326.6,131.1,264.44,120.94,246.39Z" style="fill:#afaa8c;stroke:#000;stroke-miterlimit:10"/><path d="M107.39,326.6s18.06,4,11.29,19c0,0-101.6-8-86.92-9.52,0,0-14.68-5.51,20.32-17.54" style="fill:#020202;stroke:#000;stroke-miterlimit:10"/><path d="M97.43,153,83.88,201.12s-14.67,19-38.38,23.06l-16.93-17.6,27.09-26.52L63,146S89.53,134,97.43,153Z" style="fill:#1d546d;stroke:#000;stroke-miterlimit:10"/><path d="M45.5,224.18s-9,1-16.93,20c0,0-8.21,2.47-6.7-6.49,0,0-9.58,2.55-2.52-5.44,0,0-14.78-1.54-2.6-8.12,0,0-20.32-8.89,11.82-17.6" style="fill:#998271;stroke:#000;stroke-miterlimit:10"/><path d="M49.82,102.48s13.59-4.92,19.41,0c0,0-1.4,3.19-2.78,6.16-.75,1.61-3.34-.44-3.34-.44Z" style="fill:#050505;stroke:#000;stroke-miterlimit:10"/><path d="M118.12,29c-.49-3.22-3.63-5.61-7.29-5.53-16,.36-56.43,1.57-55.62,4.81s-5-1.73-6.69,27.22c-.39,6.7-.56,15.21-.37,26.07L37.06,95.89s1.51,12.54,11.09,4.93c0,0-2.52,18.36,11.1,17.47,0,0,43.87,6.27,57.49-4C116.74,114.26,130.74,113,118.12,29Z" style="fill:#c9b7a9;stroke:#000;stroke-miterlimit:10"/><path d="M76.09,55.38s17.14-18.36,14.62,0c0,0,.51,18.81-2,26.42,0,0-3.76,8.17-9.91-4.41" style="fill:none;stroke:#000;stroke-miterlimit:10"/><path d="M81.76,60.29s4.27-2.53,3.42,3.28l.11,9.34s-.4,3.79-3.53,0" style="fill:none;stroke:#000;stroke-miterlimit:10"/><path d="M48.64,55s4.27-2,8.82,2c0,0,4.54,14.89-1.14,14.64,0,0-7.1,2-8.23-1.26" style="fill:none;stroke:#000;stroke-miterlimit:10"/><line x1="59.17" y1="66.33" x2="48.09" y2="64.22" style="fill:none;stroke:#000;stroke-miterlimit:10"/><polygon points="93.42 23.67 105.74 47.22 105.74 35.44 114.26 40.07 109.52 23.67 93.42 23.67" style="fill:#cecdcc;stroke:#000;stroke-miterlimit:10"/><path d="M116,23.46s-62.38-.59-61.9,4.88-17-4.21-8-6.31h8S39.91,18.67,56,14.88c0,0-14.21-2.1-1.42-6.31,0,0,39.3-12.61,39.78-6.3,0,0,7.57,5.88-3.79,5.88,0,0,18.47,2.83,14.68,7.1C105.26,15.25,131.17,19.67,116,23.46Z" style="fill:#894c1f;stroke:#000;stroke-miterlimit:10"/><path d="M91,8.66a135.21,135.21,0,0,0-33.62,5.89" style="fill:none;stroke:#000;stroke-miterlimit:10"/><path d="M104.92,15.25s-12.79-6.31-32.68,0" style="fill:none;stroke:#000;stroke-miterlimit:10"/><path d="M55.21,28.27S40.69,44.46,40.69,48.94s-3.15-2.42,0-7.46l-4.42,5.41s3.79-6.53-2.31-3c0,0,1.14-7.12,17.32-14Z" style="fill:#cecdcc;stroke:#000;stroke-miterlimit:10"/><path d="M50.67,65.51l7.73,1.2s.54,4.74-.48,4.74H48.09V64.79Z" style="fill:#f9f8f7;stroke:#000;stroke-miterlimit:10"/><rect x="48.63" y="66.33" width="5.29" height="5.29" rx="2.64" ry="2.64"/></symbol></defs><title>spritesheet</title><use width="135.4" height="341.83" transform="translate(0.14 0.21) scale(0.74 0.58)" xlink:href="#a"/><use width="135.4" height="341.83" transform="translate(696.38 0.21) scale(0.74 0.58)" xlink:href="#a"/><use width="146.4" height="341.4" transform="translate(116.21 0.21) scale(0.68 0.58)" xlink:href="#c"/><use width="146.4" height="343.6" transform="translate(232.24 0.21) scale(0.68 0.58)" xlink:href="#d"/><use width="146.25" height="345.32" transform="translate(348.28 0.21) scale(0.68 0.58)" xlink:href="#e"/><use width="146.4" height="344.48" transform="translate(464.32 0.21) scale(0.68 0.58)" xlink:href="#f"/><use width="146.4" height="346.17" transform="translate(579.09 0.21) scale(0.7 0.58)" xlink:href="#g"/></svg>
