<svg xmlns="http://www.w3.org/2000/svg" xmlns:xlink="http://www.w3.org/1999/xlink" viewBox="0 0 1550.34 145.82"><defs><symbol id="a" viewBox="0 0 253.34 137.97"><path d="M59.15,30.1,44.07,15.39,46.39,30.1s-7,.11-12.17,8.43L6.39,67s6.76,6.61,1.54,11.62c0,0,3.68-2.71,37.88-3.9L22.62,87.27l36.53-4.81S73.06,95.51,83.5,95.51c0,0,61.45,7.28,71.3-5.26a243.59,243.59,0,0,1,32.47-6.61s8.12-9.55,0-39.79a36.05,36.05,0,0,0-30.15-5.75s-33-11.49-84.64,5.75L67.84,15.39Z" style="fill:#c97427;stroke:#000;stroke-miterlimit:10"/><path d="M70.52,33.82V37C41.62,41.93,47,44.46,47,44.46c-4.25,4-11.64,0-11.64,0l2.29-6c6.8-3.2,10.77-.3,10.77-.3Z" style="fill:#020201"/><path d="M35.37,44.46s7.39,4,11.64,0c0,0-5.39-2.53,23.51-7.45V33.82L48.43,38.16s-4-2.9-10.77.3Z" style="fill:none;stroke:#000;stroke-miterlimit:10"/><polygon points="37.66 38.45 38.2 33.81 40.84 31.92 40.84 37.32 37.66 38.45" style="fill:#020201;stroke:#000;stroke-miterlimit:10"/><path d="M214.35,14.89c.74-.26,26.14-9.46,25.81-8.19L233.06,14l17.44-3-7.11,3.93,5.82,2.34L231.44,23.1h6.46s-20,7.38-18.73,9.69l6.46,1.65s-22,7.28-37.78,10.59a13.37,13.37,0,0,1-7.44-5.29L207.22,14l-1.29,4.92S211.74,6,228.54,1.05Z" style="fill:#020201"/><path d="M214.33,14.9h0" style="fill:none;stroke:#000;stroke-miterlimit:10"/><path d="M214.35,14.89c.74-.26,26.14-9.46,25.81-8.19L233.06,14l17.44-3-7.11,3.93,5.82,2.34L231.44,23.1h6.46s-20,7.38-18.73,9.69l6.46,1.65s-22,7.28-37.78,10.59a13.37,13.37,0,0,1-7.44-5.29L207.22,14l-1.29,4.92S211.74,6,228.54,1.05Z" style="fill:none;stroke:#000;stroke-miterlimit:10"/><path d="M167.3,63.15l-23.67,4.61c-3.9,15.63-.78,25.17,12.24,34.81a31.59,31.59,0,0,0,8.76-2.11C176.56,89.18,173.18,77,167.3,63.15Z" style="fill:#89663d;stroke:#000;stroke-miterlimit:10"/><path d="M163.28,131.08c-.74-9.86-1.2-19.74-1-29.64-2.15.3-4.28.71-6.4,1.13,0,9.61.61,19.16,1.24,28.74-1.2,3.4.28,5.11,3.54,6.14,1.49-.33,3.42-1.4,3.62-2.92S163.7,132.35,163.28,131.08Z" style="fill:#89663d;stroke:#000;stroke-miterlimit:10"/><path d="M164,133.25a2.7,2.7,0,0,1-1.76,3.57,2.8,2.8,0,0,1-3.73-1.53,2.61,2.61,0,0,1,1.79-3.51C161.8,131.31,163.35,131.7,164,133.25Z" style="stroke:#000;stroke-miterlimit:10"/><path d="M160.19,134c.4,1,.43,2.48-.76,2.93s-2.11-.6-2.53-1.63-.43-2.44.75-2.91S159.79,133,160.19,134Z" style="stroke:#000;stroke-miterlimit:10"/><path d="M75.27,93.68c-2.8-1.54-5.58-3.55-8.34-4.9C56.73,99,49.05,110.56,54.82,123.88s8.8,6.8,13.15-.09C64.49,111.85,70,103.68,75.27,93.68Z" style="fill:#c97427;stroke:#000;stroke-miterlimit:10"/><path d="M70.66,125.34c2.07,3.46-3.58,7-6.6,8.16s-9.23,2.32-10.72-1.75,2.84-7.11,6.17-8.06S68.58,121.88,70.66,125.34Z" style="stroke:#000;stroke-miterlimit:10"/><path d="M86.73,96c-3.22-.58-6.94-1.6-9.89-1.82-6.79,8.19-8.63,29.94-.63,33.69,10.61,5,10.68-1.76,12-6.84C81.11,114.84,85.58,103.35,86.73,96Z" style="fill:#c97427;stroke:#000;stroke-miterlimit:10"/><path d="M92.12,122.14c2.73,1.44.64,6.19-1,8.19s-5.1,4.73-7.71,2.56-.92-5.63.89-7.73S89.39,120.69,92.12,122.14Z" style="stroke:#000;stroke-miterlimit:10"/><path d="M176,85.33c-3,11.82-5.32,24.81,4,34-3.26,11-1.91,15.5,10,8.87,6.54-6.67,13-14-1.94-13.39-11.45-6.8-5.82-21.33-2-30.78Z" style="fill:#c97427;stroke:#000;stroke-miterlimit:10"/><path d="M188.14,114.84l-8.07,4.52" style="stroke:#000;stroke-miterlimit:10"/><polyline points="8.51 78.63 21.8 86.33 18.67 77.56 29.01 83.05 29.01 76.68 37 78.47 37.66 75.09" style="fill:none;stroke:#000;stroke-miterlimit:10"/><rect x="0.5" y="67.08" width="9.77" height="11.27" rx="4.79" ry="4.79" style="stroke:#000;stroke-miterlimit:10"/></symbol><symbol id="b" viewBox="0 0 253.45 140.53"><path d="M59.26,30.1,44.18,15.39,46.5,30.1s-7,.11-12.17,8.43L6.5,67S13.26,73.63,8,78.64c0,0,3.68-2.71,37.88-3.9L22.73,87.27l36.53-4.81S73.17,95.51,83.61,95.51c0,0,61.45,7.28,71.3-5.26a243.59,243.59,0,0,1,32.47-6.61s8.12-9.55,0-39.79a36.05,36.05,0,0,0-30.15-5.75s-33-11.49-84.64,5.75L68,15.39Z" style="fill:#c97427;stroke:#000;stroke-miterlimit:10"/><path d="M70.63,33.82V37c-28.9,4.92-23.51,7.45-23.51,7.45-4.25,4-11.64,0-11.64,0l2.29-6c6.8-3.2,10.77-.3,10.77-.3Z" style="fill:#020201"/><path d="M35.48,44.46s7.39,4,11.64,0c0,0-5.39-2.53,23.51-7.45V33.82L48.54,38.16s-4-2.9-10.77.3Z" style="fill:none;stroke:#000;stroke-miterlimit:10"/><polygon points="37.77 38.45 38.31 33.81 40.95 31.92 40.95 37.32 37.77 38.45" style="fill:#020201;stroke:#000;stroke-miterlimit:10"/><path d="M214.46,14.89c.74-.26,26.14-9.46,25.81-8.19L233.17,14l17.44-3L243.5,14.9l5.82,2.34L231.55,23.1H238s-20,7.38-18.73,9.69l6.46,1.65S203.77,41.72,188,45a13.36,13.36,0,0,1-7.43-5.29L207.33,14,206,18.9S211.85,6,228.65,1.05Z" style="fill:#020201"/><path d="M214.44,14.9h0" style="fill:none;stroke:#000;stroke-miterlimit:10"/><path d="M214.46,14.89c.74-.26,26.14-9.46,25.81-8.19L233.17,14l17.44-3L243.5,14.9l5.82,2.34L231.55,23.1H238s-20,7.38-18.73,9.69l6.46,1.65S203.77,41.72,188,45a13.36,13.36,0,0,1-7.43-5.29L207.33,14,206,18.9S211.85,6,228.65,1.05Z" style="fill:none;stroke:#000;stroke-miterlimit:10"/><path d="M169.55,63.17,145.82,67.4c-5.06,15.17-2.24,25.27,11.35,34A30,30,0,0,0,166,99.52C179.46,90.49,175.07,75.68,169.55,63.17Z" style="fill:#89663d;stroke:#000;stroke-miterlimit:10"/><path d="M164.74,130c-.92-9.92-1.78-19.63-1.13-29.61-2.17.23-4.29.59-6.44,1-.49,9.69.6,19.09,1.43,28.72-1.4,3.43.05,5.41,3.45,6.37,1.5-.29,3.63-1.35,3.72-2.88S165.21,131.29,164.74,130Z" style="fill:#89663d;stroke:#000;stroke-miterlimit:10"/><path d="M165.49,132.37a2.75,2.75,0,0,1-1.85,3.58,2.91,2.91,0,0,1-3.77-1.68,2.75,2.75,0,0,1,1.85-3.58A2.91,2.91,0,0,1,165.49,132.37Z" style="stroke:#000;stroke-miterlimit:10"/><path d="M161.65,133c.37,1,.41,2.55-.79,2.95s-2.16-.8-2.54-1.82-.41-2.5.79-2.93S161.28,132,161.65,133Z" style="stroke:#000;stroke-miterlimit:10"/><path d="M75.37,94.08c-2.68-1.82-5.34-3.78-8.08-5.45-10.09,9.6-19.19,22.85-17.75,36.28s6.4,8.75,12.71,3.34C63.58,114.57,68.8,105.68,75.37,94.08Z" style="fill:#c97427;stroke:#000;stroke-miterlimit:10"/><path d="M64.16,130.67c.58,4.06-5.52,5.49-8.81,5.69s-9.59-.55-9.77-4.92,5.22-5.74,8.62-5.7S63.57,126.62,64.16,130.67Z" style="stroke:#000;stroke-miterlimit:10"/><path d="M87.08,95.91c-3.37-.45-6.76-1.38-10.13-1.54-4.31,8-10.46,28.05-6.84,34.83,4.79,9,9,4.78,13.33,1.13C84.85,118.6,86,107.45,87.08,95.91Z" style="fill:#c97427;stroke:#000;stroke-miterlimit:10"/><path d="M85,134.32c.56,3.28-3.4,5.08-6.15,5.56s-7.08-.07-7.62-3.28,3.61-4.77,6.17-5.24S84.4,131.05,85,134.32Z" style="stroke:#000;stroke-miterlimit:10"/><path d="M176.44,85.18c-3.56,11.06-7.58,23.2,1.51,32.31-3.59,10.94-2.19,15.2,9.73,8.84,6.57-6.47,13.39-13.71-1.59-13.24-11.12-6.5-3.58-20.19.52-28.5Z" style="fill:#c97427;stroke:#000;stroke-miterlimit:10"/><path d="M186.09,113.09c-2.71,1.47-5.41,3-8.14,4.4" style="stroke:#000;stroke-miterlimit:10"/><polyline points="8.62 78.63 21.91 86.33 18.78 77.56 29.12 83.05 29.12 76.68 37.11 78.47 37.77 75.09" style="fill:none;stroke:#000;stroke-miterlimit:10"/><rect x="0.5" y="66.32" width="9.77" height="11.27" rx="4.79" ry="4.79" style="stroke:#000;stroke-miterlimit:10"/></symbol><symbol id="c" viewBox="0 0 258.89 135.04"><path d="M63.51,24.21Q56.44,16.38,49.35,8.56q.74,7.41,1.46,14.81c-5.41,0-9.4,3.29-13,7C27.46,38.57,17.49,47.08,7.79,56.08c3.19,3.86,4.05,7.74.86,11.8,10.71-4.68,27.92-1.54,38.79-1C39.14,70.24,31,73.8,22.82,77.51c13-.76,26-1.1,39-1.63,7.42,6.47,15.16,12,25,13.7,18.2,2.32,56.87,7.13,71.42-4.43a260.5,260.5,0,0,1,32.54-6.24c7.69-10.86,2.86-28.26.5-39.77-9-6.81-19.22-7.67-30.05-6.08-27.18-9.19-58.58-2.79-85,5.29-1.41-9.45-2.37-19-3.39-28.46Z" style="fill:#c97427;stroke:#000;stroke-miterlimit:10"/><path d="M74.48,31.61c-21,3.15-25.07,5-24,5.87-4.17,1.93-8.08,1-11.93-1.3q1.44-2.74,2.84-5.51c3.66-.87,7.73-1.56,11,.84,7.46-.71,14.86-1.92,22.27-3.05C74.56,29.51,74.52,30.56,74.48,31.61Z" style="fill:#020201"/><path d="M38.51,36.18c3.85,2.29,7.76,3.23,11.93,1.3-1-.85,3-2.72,24-5.87,0-1.05.08-2.1.13-3.15C67.2,29.59,59.8,30.8,52.34,31.51c-3.26-2.4-7.33-1.71-11-.84Q40,33.43,38.51,36.18Z" style="fill:none;stroke:#000;stroke-miterlimit:10"/><path d="M41.36,30.67c.31-1.47.62-2.94.91-4.42l2.82-1.59-.39,5.26C43.59,30.19,42.47,30.42,41.36,30.67Z" style="fill:#020201;stroke:#000;stroke-miterlimit:10"/><path d="M228.89,34.17c-12.6,2.55-25.26,3.91-38,5.25a15.66,15.66,0,0,1-6.64-6.21c9.58-7.08,19.25-14,28.64-21.36q-.81,2.33-1.63,4.64C217.38,8.1,225.29,4.27,235,1.26q-7.71,6.17-15.42,12.34c8.81-2.37,17.24-5.48,26.45-5.6q-3.9,3.29-7.83,6.56L256,13.25l-7.5,3.23,5.55,2.9-18.3,4.11,6.44.63c-6.79,1.62-14.48,2.33-19.44,7.69C224.77,32.61,226.82,33.41,228.89,34.17Z" style="fill:#020201"/><line x1="254.02" y1="19.38" x2="254.01" y2="19.38" style="fill:none;stroke:#000;stroke-miterlimit:10"/><path d="M254,19.38l-18.3,4.11,6.44.63c-6.79,1.62-14.48,2.33-19.44,7.69,2.06.8,4.11,1.6,6.18,2.36-12.6,2.55-25.26,3.91-38,5.25a15.66,15.66,0,0,1-6.64-6.21c9.58-7.08,19.25-14,28.64-21.36q-.81,2.33-1.63,4.64C217.38,8.1,225.29,4.27,235,1.26q-7.71,6.17-15.42,12.34c8.81-2.37,17.24-5.48,26.45-5.6q-3.9,3.29-7.83,6.56L256,13.25l-7.5,3.23Z" style="fill:none;stroke:#000;stroke-miterlimit:10"/><path d="M175.87,59.84l-24.09.55c-6.32,14.46-5.16,24.34,6.15,35.6a32.9,32.9,0,0,0,9-.35C180.41,86.73,179.22,74.24,175.87,59.84Z" style="fill:#89663d;stroke:#000;stroke-miterlimit:10"/><path d="M159.87,127.61c1.18-10.55,2.56-21,4.56-31.48-2.18-.13-4.32-.18-6.5-.14-1.81,10.05-2.92,20.16-4.06,30.3-1.78,3.13-.84,5.1,2.1,7,1.52,0,3.62-.5,4.14-2S160,129,159.87,127.61Z" style="fill:#89663d;stroke:#000;stroke-miterlimit:10"/><path d="M160.09,130a2.6,2.6,0,0,1-2.48,3,2.9,2.9,0,0,1-3.28-2.46,2.57,2.57,0,0,1,2.48-3A2.91,2.91,0,0,1,160.09,130Z" style="stroke:#000;stroke-miterlimit:10"/><path d="M156.25,129.75c.16,1.1-.07,2.52-1.36,2.66s-1.91-1.21-2.07-2.3.06-2.46,1.34-2.61S156.09,128.64,156.25,129.75Z" style="stroke:#000;stroke-miterlimit:10"/><path d="M77.94,85.81c-3.07-1.08-6.33-2.56-9.26-3.45-9.18,11.55-11.65,22-1.58,33.52s10.33,4.62,12.55-3.75C70.91,98.77,74.64,98.17,77.94,85.81Z" style="fill:#c97427;stroke:#000;stroke-miterlimit:10"/><path d="M82.51,112.94c3,2.85-.83,7.38-3.51,9.56s-7.89,5.27-10.68,1.81.28-7.73,3.25-9.73S79.48,110.1,82.51,112.94Z" style="stroke:#000;stroke-miterlimit:10"/><path d="M90.45,90c-3.44-.45-6.77-1.58-10.27-1.54-4.2,8-10.31,26.38-7.64,33.91,3.53,10,7.37,5.54,13,2.91C88.05,113.39,89.17,101.94,90.45,90Z" style="fill:#c97427;stroke:#000;stroke-miterlimit:10"/><path d="M86.68,129.25c.39,3.28-3.37,4.88-6.29,5.22s-6.89-.4-7.28-3.8,3.59-4.65,6.28-4.87S86.3,126,86.68,129.25Z" style="stroke:#000;stroke-miterlimit:10"/><path d="M181.61,79.12c-7.78,10.29-12.29,18.38-7,31-5.32,11.17-5.06,13.18,7.79,10.74,8.58-5.62,15.15-8.66,1.16-13.19-7.26-11-.4-17.35,7.69-25.37C188.06,81.23,184.83,80.19,181.61,79.12Z" style="fill:#c97427;stroke:#000;stroke-miterlimit:10"/><path d="M183.59,107.65c-3,.81-6,1.61-9,2.45" style="stroke:#000;stroke-miterlimit:10"/><path d="M9.23,67.9,22,76.5c-.88-3-1.75-6-2.63-9q5.06,3.12,10.1,6.25c.11-2.15.24-4.29.32-6.44,2.71.83,5.43,1.65,8.13,2.5.28-1.13.55-2.25.82-3.37" style="fill:none;stroke:#000;stroke-miterlimit:10"/><path d="M5.15,68.11l-.18,0A5,5,0,0,1,.5,63,11.7,11.7,0,0,1,.6,61.3a4.94,4.94,0,0,1,5-4.57.55.55,0,0,1,.18,0,5,5,0,0,1,4.48,5.14,10.4,10.4,0,0,1-.1,1.67A5,5,0,0,1,5.15,68.11Z" style="stroke:#000;stroke-miterlimit:10"/></symbol><symbol id="d" viewBox="0 0 246.06 145.82"><path d="M59.15,35.28,44.07,20.58l2.32,14.7s-7,.11-12.17,8.43L6.39,72.21s6.76,6.61,1.54,11.61c0,0,3.68-2.71,37.88-3.9L22.62,92.45l36.53-4.81S73.06,100.7,83.5,100.7c0,0,61.45,7.28,71.3-5.27a242.7,242.7,0,0,1,32.47-6.6s8.12-9.56,0-39.8a36.05,36.05,0,0,0-30.15-5.75s-33-11.49-84.64,5.75L67.84,20.58Z" style="fill:#c97427;stroke:#000;stroke-miterlimit:10"/><path d="M70.52,39v3.19C41.62,47.11,47,49.65,47,49.65c-4.25,4-11.64,0-11.64,0l2.29-6c6.8-3.19,10.77-.29,10.77-.29Z" style="fill:#020201"/><path d="M35.37,49.65s7.39,4,11.64,0c0,0-5.39-2.54,23.51-7.46V39L48.43,43.35s-4-2.9-10.77.29Z" style="fill:none;stroke:#000;stroke-miterlimit:10"/><polygon points="37.66 43.64 38.2 39 40.84 37.1 40.84 42.5 37.66 43.64" style="fill:#020201;stroke:#000;stroke-miterlimit:10"/><path d="M188.89,49.92a14.5,14.5,0,0,1-8.23-3.87c6.93-9.57,13-19.7,20.21-29.08-.16,1.65-.32,3.31-.44,5,3-9.82,11.28-15.69,19.86-20.32-4.14,5.16-8.28,10.3-12.39,15.47,7.56-3.79,16.27-9.95,24.66-11.3-2.07,2.7-4.12,5.4-6.18,8.1l17-5.15-6.59,4.78c2,.53,4.05,1.08,6.07,1.62l-17,8,6.43-.8c-4.75,2.49-15.35,6.21-17,11.65,2.16.34,4.32.61,6.48.91C210.89,40,200,45.11,188.89,49.92Z" style="fill:#020201"/><path d="M180.66,46.05c6.93-9.57,13-19.7,20.21-29.08-.16,1.65-.32,3.31-.44,5,3-9.82,11.28-15.69,19.86-20.32-4.14,5.16-8.28,10.3-12.39,15.47,7.56-3.79,16.27-9.95,24.66-11.3-2.07,2.7-4.12,5.4-6.18,8.1l17-5.15-6.59,4.78c2,.53,4.05,1.08,6.07,1.62l-17,8,6.43-.8c-4.75,2.49-15.35,6.21-17,11.65,2.16.34,4.32.61,6.48.91C210.89,40,200,45.11,188.89,49.92A14.5,14.5,0,0,1,180.66,46.05Z" style="fill:none;stroke:#000;stroke-miterlimit:10"/><path d="M172.53,70.2q-12.08.31-24.14.61c-7.58,14.46-5.59,24.46,6.42,35.36a26.15,26.15,0,0,0,8.95-.4C178.09,98.67,176,83.21,172.53,70.2Z" style="fill:#89663d;stroke:#000;stroke-miterlimit:10"/><path d="M156.18,137.56c1.78-10.38,3.46-20.83,5.13-31.25-2.17-.12-4.33-.14-6.5-.14-1.44,9.94-2.84,19.89-4.55,29.79-2.36,2.88-1.2,5.27,1.7,7,1.51.13,3.84-.35,4.32-1.78S156.37,138.86,156.18,137.56Z" style="fill:#89663d;stroke:#000;stroke-miterlimit:10"/><path d="M156.32,139.93a2.7,2.7,0,0,1-2.69,3,3,3,0,0,1-3.21-2.63,2.65,2.65,0,0,1,2.69-2.92A3,3,0,0,1,156.32,139.93Z" style="stroke:#000;stroke-miterlimit:10"/><path d="M152.46,139.52c.1,1.07-.26,2.58-1.52,2.65s-1.88-1.34-2-2.41.25-2.54,1.51-2.63S152.36,138.45,152.46,139.52Z" style="stroke:#000;stroke-miterlimit:10"/><path d="M74.81,96.77c-3.17-.82-6.2-1.68-9.44-2.51-4.74,11.29-10.27,23.51-10.32,35.88s6.56,9.51,12.69,2.91C70.64,121,72.66,108.94,74.81,96.77Z" style="fill:#c97427;stroke:#000;stroke-miterlimit:10"/><path d="M69.39,135.82c.13,4.36-5.74,5.68-9.24,5.74s-9.47-1-9.6-5.4,5.74-5.69,9.24-5.75S69.26,131.47,69.39,135.82Z" style="stroke:#000;stroke-miterlimit:10"/><path d="M86.67,100.9c-3.38-.36-6.86-1.22-10.17-1.3-4.8,9.18-8.14,27.77-3.25,35,6.48,9.62,10.34,4.83,13.5-.87C85.26,122.31,86.2,112.12,86.67,100.9Z" style="fill:#c97427;stroke:#000;stroke-miterlimit:10"/><path d="M89.17,137.75c1.21,3.08-2.42,5.72-5,6.74s-6.84,1.63-8.08-1.47,2.49-5.63,5-6.7S88,134.67,89.17,137.75Z" style="stroke:#000;stroke-miterlimit:10"/><path d="M175.92,90.62s-6.58,27.08,6.07,33.22c0,0-6,20.78,10.32,8.52,0,0,16.64-17-2.33-13.29,0,0-15.24-6.56-4-30.07Z" style="fill:#c97427;stroke:#000;stroke-miterlimit:10"/><line x1="189.98" y1="119.07" x2="181.99" y2="123.84" style="stroke:#000;stroke-miterlimit:10"/><polyline points="8.51 83.81 21.8 91.52 18.67 82.75 29.01 88.23 29.01 81.87 37 83.65 37.66 80.27" style="fill:none;stroke:#000;stroke-miterlimit:10"/><rect x="0.5" y="72.27" width="9.77" height="11.27" rx="4.79" ry="4.79" style="stroke:#000;stroke-miterlimit:10"/></symbol><symbol id="e" viewBox="0 0 255 141.64"><path d="M216,14.89c.75-.26,26.14-9.46,25.82-8.19L234.73,14l17.43-3-7.11,3.93,5.82,2.34L233.11,23.1h6.45s-20,7.38-18.73,9.69l6.46,1.65s-22,7.28-37.78,10.59a13.4,13.4,0,0,1-7.44-5.29L208.88,14l-1.29,4.92S213.41,6,230.2,1.05Z" style="fill:#020201"/><path d="M216,14.9h0" style="fill:none;stroke:#000;stroke-miterlimit:10"/><path d="M216,14.89c.75-.26,26.14-9.46,25.82-8.19L234.73,14l17.43-3-7.11,3.93,5.82,2.34L233.11,23.1h6.45s-20,7.38-18.73,9.69l6.46,1.65s-22,7.28-37.78,10.59a13.4,13.4,0,0,1-7.44-5.29L208.88,14l-1.29,4.92S213.41,6,230.2,1.05Z" style="fill:none;stroke:#000;stroke-miterlimit:10"/><path d="M171.06,63.18,147.26,67c-5.38,15.2-2.63,25.44,10.9,34.45A29.31,29.31,0,0,0,167,99.77C180.54,90.9,176.3,75.75,171.06,63.18Z" style="fill:#89663d;stroke:#000;stroke-miterlimit:10"/><path d="M165.46,131.73c-.47-10.37-1.42-20.7-.84-31.11-2.17.19-4.3.5-6.46.86-.4,10,.74,20,1.17,30-1.54,3.4-.16,5.49,3.2,6.65,1.51-.22,3.67-1.17,3.82-2.7S165.88,133,165.46,131.73Z" style="fill:#89663d;stroke:#000;stroke-miterlimit:10"/><path d="M166.12,134.13a2.73,2.73,0,0,1-2,3.5,3,3,0,0,1-3.7-1.9,2.72,2.72,0,0,1,2-3.49A3,3,0,0,1,166.12,134.13Z" style="stroke:#000;stroke-miterlimit:10"/><path d="M162.25,134.58c.33,1,.33,2.58-.9,2.93s-2.13-.95-2.46-2-.32-2.57.9-2.92S161.92,133.56,162.25,134.58Z" style="stroke:#000;stroke-miterlimit:10"/><path d="M76.37,92.68c-3-1.21-6-2.47-9.06-3.66-6,10.48-12.46,21.57-12.46,33.83S61.29,132,67.53,126C70.21,114.73,73.16,103.74,76.37,92.68Z" style="fill:#c97427;stroke:#000;stroke-miterlimit:10"/><path d="M69.19,128.61c.16,4.25-5.91,5.51-9.33,5.51s-9.45-1.11-9.52-5.45,5.84-5.41,9.23-5.35S69,124.35,69.19,128.61Z" style="stroke:#000;stroke-miterlimit:10"/><path d="M88.93,96.25c-3.35-.78-6.64-2-10-2.56-5.17,8.6-13.65,26.46-11,34.75,3.48,11,8.56,7.68,13,2.66C82.73,119,87.11,108.15,88.93,96.25Z" style="fill:#c97427;stroke:#000;stroke-miterlimit:10"/><path d="M82.22,135.79c.4,3.32-3.6,4.94-6.36,5.27s-7.06-.28-7.47-3.6,3.6-5,6.35-5.29S81.82,132.46,82.22,135.79Z" style="stroke:#000;stroke-miterlimit:10"/><path d="M177.58,85.44s-6.57,27.08,6.07,33.21c0,0-6,20.79,10.32,8.52,0,0,16.65-17-2.33-13.29,0,0-15.24-6.55-4-30.06Z" style="fill:#c97427;stroke:#000;stroke-miterlimit:10"/><line x1="191.64" y1="113.88" x2="183.65" y2="118.65" style="stroke:#000;stroke-miterlimit:10"/><path d="M60.7,28.65c-4.91-5.14-9.86-10.25-14.91-15.26.68,4.86,1.37,9.71,2,14.56-5.38.11-9.22,3.52-12.55,7.38-9.9,8.79-19.39,18-28.74,27.35,3.35,3.71,4.23,7.51,1.22,11.66,10.39-5.18,27.31-3.18,38.12-3C37.7,74.73,30,78.9,22.14,83a260.63,260.63,0,0,1,37.77-2.13c7.08,7.07,15,12.81,25,14.53,18.11,2.25,56.89,6.48,71.25-5.16a261.63,261.63,0,0,1,32.45-6.59c7.61-10.93,2.7-28.26.27-39.77-9-6.73-19.26-7.46-30-5.76-27-8.82-58.38-2.29-84.67,5.27q-2.3-14.59-4.5-29.2C66.66,19,63.71,23.87,60.7,28.65Z" style="fill:#c97427;stroke:#000;stroke-miterlimit:10"/><path d="M49.68,35.91c7.52-.84,15-1.84,22.48-2.91,0,1.1,0,2.19,0,3.29-11.82,1.49-26.37,3.84-24.08,5.64-4,2-8,1.23-11.84-.84.84-1.87,1.69-3.74,2.53-5.63C42.37,34.41,46.34,33.64,49.68,35.91Z" style="fill:#020201"/><path d="M36.24,41.09c3.87,2.07,7.83,2.85,11.84.84-2.29-1.8,12.26-4.15,24.08-5.64,0-1.1,0-2.19,0-3.29-7.48,1.07-15,2.07-22.48,2.91-3.34-2.27-7.31-1.5-10.91-.45C37.93,37.35,37.08,39.22,36.24,41.09Z" style="fill:none;stroke:#000;stroke-miterlimit:10"/><path d="M38.76,35.47c.23-1.48.47-3,.69-4.43l2.73-1.67c0,1.73-.11,3.47-.16,5.2Z" style="fill:#020201;stroke:#000;stroke-miterlimit:10"/><path d="M8.34,74.33l13,7.77-2.88-8.8,10.14,5.55q.09-3.19.17-6.38c2.64.61,5.28,1.19,7.91,1.83.24-1.13.5-2.26.74-3.39" style="fill:none;stroke:#000;stroke-miterlimit:10"/><path d="M5.32,74H5.14A4.82,4.82,0,0,1,.52,69.19a9.21,9.21,0,0,1,0-1.66,5.09,5.09,0,0,1,4.88-4.8h.18a4.82,4.82,0,0,1,4.63,4.85,11.47,11.47,0,0,1,0,1.66A5.07,5.07,0,0,1,5.32,74Z" style="stroke:#000;stroke-miterlimit:10"/></symbol><symbol id="f" viewBox="0 0 259.84 130.96"><path d="M237.46.9q-8.37,5.33-16.76,10.64c8.34-1.18,18.62-4.17,27-2.73l-8.44,5.66,17.66.64-7.75,2.39,5.2,3.49-18.56,2.08,6.32,1.33c-5.63.87-16.65,1-20.42,5.66,2,1,4,2,6,2.94A400.69,400.69,0,0,1,187,35.55a13.81,13.81,0,0,1-6.16-6.79c10.93-6.63,22.07-12.91,33-19.57-.78,1.52-1.58,3-2.36,4.56C218.17,5.72,227.5,2.55,237.46.9Z" style="fill:#020201"/><path d="M180.88,28.76c10.93-6.63,22.07-12.91,33-19.57-.78,1.52-1.58,3-2.36,4.56,6.66-8,16-11.2,26-12.85q-8.37,5.33-16.76,10.64c8.34-1.18,18.62-4.17,27-2.73l-8.44,5.66,17.66.64-7.75,2.39,5.2,3.49-18.56,2.08,6.32,1.33c-5.63.87-16.65,1-20.42,5.66,2,1,4,2,6,2.94A400.69,400.69,0,0,1,187,35.55,13.81,13.81,0,0,1,180.88,28.76Z" style="fill:none;stroke:#000;stroke-miterlimit:10"/><path d="M74.88,82.66c-2.95-1.12-6.13-2.76-8.95-3.58-10.21,13.44-14.7,25-4.19,38.16s10.66,3.67,12.87-3.77C64.1,98.88,72,96.33,74.88,82.66Z" style="fill:#c97427;stroke:#000;stroke-miterlimit:10"/><path d="M77.67,114.34c3,3-1.39,7.94-4,10s-8.14,5.09-10.79,1.53.79-8,3.7-10.09S74.68,111.37,77.67,114.34Z" style="stroke:#000;stroke-miterlimit:10"/><path d="M87.7,87.76c-3.15-1.31-6.06-3.24-9.36-4.12C71,90.71,62.28,107.2,63.24,116.05c1.28,11.72,5.85,9.14,12.35,5.64C79.24,110,83.4,99,87.7,87.76Z" style="fill:#c97427;stroke:#000;stroke-miterlimit:10"/><path d="M76,126.37c-.14,3.43-4.14,4.18-7,4.08s-6.75-1.21-6.62-4.62,4.15-4.17,7-4.06S76.16,123,76,126.37Z" style="stroke:#000;stroke-miterlimit:10"/><path d="M178.05,74.27c-8.24,10.46-12.75,19-8.33,32.23-5.81,11-5.67,13.1,7.35,11.19,8.8-5.29,15.45-8.06,1.73-13.27-6.51-11.74.13-18.63,8.82-26.75Z" style="fill:#c97427;stroke:#000;stroke-miterlimit:10"/><path d="M178.8,104.42c-3,.73-6.05,1.41-9.08,2.08" style="stroke:#000;stroke-miterlimit:10"/><path d="M61.12,21.11C56.67,15.72,52.24,10.3,47.68,5c.34,5,.65,10.08,1,15.12-5.12,0-8.78,3.1-12,6.74C27.46,34.39,17.14,40.42,7.59,47.5c2.8,4.26,3,8.22-.62,11.93,11.28-3.71,27,1.66,37.76,4-8.24,2.37-16.55,4.39-24.72,7,12.61.85,25.18,3.13,37.85,2.23,7.06,6.46,15.85,11.54,25.3,13.08,18.35,2.19,56.58,7.74,71.34-3.85A255.79,255.79,0,0,1,187,75.94c7.74-10.83,2.95-28.31.64-39.82-8.93-6.89-19.13-7.86-30-6.38-27.18-9.48-58.31-3.26-84.58,5.57-.9-9.52-1.27-19.09-1.8-28.64Q66.17,13.89,61.12,21.11Z" style="fill:#c97427;stroke:#000;stroke-miterlimit:10"/><path d="M71.68,28.59c-1.43.22-26.46,3.36-23.74,6.13-3.92,1.92-7.28.59-10.55-2,.82-1.79,1.64-3.6,2.45-5.39,3.29-.72,7.23-1.17,10.07,1.16,7.38-.85,14.73-1.87,22.08-3Z" style="fill:#020201"/><path d="M37.39,32.69c3.27,2.62,6.63,4,10.55,2C45.22,32,70.25,28.81,71.68,28.59L72,25.46c-7.35,1.13-14.7,2.15-22.08,3-2.84-2.33-6.78-1.88-10.07-1.16C39,29.09,38.21,30.9,37.39,32.69Z" style="fill:none;stroke:#000;stroke-miterlimit:10"/><path d="M39.84,27.3c.26-1.48.5-2.95.78-4.42l2.62-1.57c-.14,1.8-.3,3.59-.41,5.39Z" style="fill:#020201;stroke:#000;stroke-miterlimit:10"/><path d="M7.55,59.51c3.94,3.26,8,6.45,11.81,9.81-.49-3.12-1-6.23-1.5-9.35,3.16,2.42,6.22,4.94,9.27,7.48.37-2.14.76-4.29,1.13-6.43,2.48,1.3,4.95,2.61,7.46,3.87.37-1,.77-2.1,1.12-3.15" style="fill:none;stroke:#000;stroke-miterlimit:10"/><path d="M4.57,58.77l-.17,0A4.85,4.85,0,0,1,.53,53.18a10.66,10.66,0,0,1,.31-1.67,5.22,5.22,0,0,1,5.65-4.12l.18,0A4.85,4.85,0,0,1,10.54,53a10.54,10.54,0,0,1-.31,1.66A5.22,5.22,0,0,1,4.57,58.77Z" style="stroke:#000;stroke-miterlimit:10"/><path d="M172.11,54.73,148,56.08c-7.07,14.72-4.9,24.79,7.45,35.38a26.7,26.7,0,0,0,8.95-.68C178.63,83.24,176,67.67,172.11,54.73Z" style="fill:#89663d;stroke:#000;stroke-miterlimit:10"/><path d="M157.5,123.61q2.17-16.1,4.47-32.22c-2.17-.06-4.33,0-6.51.07-1.33,10.26-2.53,20.53-3.94,30.78-2.11,3.07-1.13,5.37,2,7.14,1.53.07,3.82-.48,4.24-2S157.68,125,157.5,123.61Z" style="fill:#89663d;stroke:#000;stroke-miterlimit:10"/><path d="M157.72,126.11a2.73,2.73,0,0,1-2.58,3.1,3,3,0,0,1-3.3-2.57,2.73,2.73,0,0,1,2.58-3.1A3,3,0,0,1,157.72,126.11Z" style="stroke:#000;stroke-miterlimit:10"/><path d="M153.84,125.84c.14,1.07-.14,2.62-1.41,2.74s-1.93-1.34-2.07-2.42.14-2.57,1.41-2.71S153.7,124.77,153.84,125.84Z" style="stroke:#000;stroke-miterlimit:10"/></symbol></defs><title>raevsheet</title><use width="253.34" height="137.97" transform="translate(0 2)" xlink:href="#a"/><use width="253.45" height="140.53" transform="translate(518.41 2)" xlink:href="#b"/><use width="258.89" height="135.04" transform="translate(775.92 5)" xlink:href="#c"/><use width="246.06" height="145.82" transform="translate(1041.57)" xlink:href="#d"/><use width="255" height="141.64" transform="translate(1295.34 2)" xlink:href="#e"/><use width="259.84" height="130.96" transform="translate(255.98 8)" xlink:href="#f"/></svg>
